# 3ds Max Wavefront OBJ Exporter v0.99 - (c)2007 guruware
# File Created: 07.12.2023 18:40:21

mtllib police_rightleg.mtl

#
# object police_rightleg
#

v  1.7720 -6.8570 0.7063
v  1.8845 -5.9850 0.6973
v  0.9304 -6.3198 2.3935
v  0.8085 -7.1381 2.4137
v  -0.8394 -6.4292 3.2247
v  -0.7993 -7.2080 3.1321
v  -2.5029 -6.2255 2.3955
v  -2.6086 -7.0274 2.4156
v  -3.1442 -5.7302 0.6975
v  -3.3042 -6.7582 0.7079
v  1.9569 -5.4908 0.6917
v  0.9147 -5.6632 2.3793
v  -0.7815 -5.7337 3.2562
v  -2.5178 -5.4216 2.3781
v  -3.1455 -5.0890 0.6902
v  2.0174 -4.7639 0.6827
v  1.0747 -4.8020 2.3632
v  -0.6470 -4.6273 3.2987
v  -2.3182 -4.3889 2.3594
v  -2.9817 -3.9093 0.6748
v  2.0184 -4.3443 0.6772
v  1.2023 -4.3081 2.3553
v  -0.5635 -3.9129 3.3203
v  -2.3451 -3.5898 2.3480
v  -2.9599 -3.1857 0.6644
v  1.9992 -3.8233 0.6699
v  1.2547 -3.9342 2.3500
v  -0.3763 -3.5160 3.2458
v  -2.2328 -3.0827 2.3421
v  -2.9166 -2.5533 0.6545
v  2.1956 -3.0703 0.6584
v  1.6425 -3.0332 2.3395
v  -0.4149 -2.6150 3.0351
v  -2.2783 -2.1823 2.3342
v  -2.7747 -1.8416 0.6426
v  -3.0129 -6.0908 -1.8413
v  -2.9894 -6.8640 -1.8453
v  -2.9011 -5.2430 -1.8445
v  -2.7745 -4.1343 -1.8606
v  -2.6409 -3.3388 -1.8807
v  -2.5864 -2.5516 -1.9073
v  -2.3489 -1.8533 -1.9372
v  -1.6115 -6.2107 -2.6283
v  -1.7397 -6.7990 -2.5935
v  -1.5601 -5.3028 -2.7686
v  -1.5248 -4.1342 -2.6857
v  -1.3912 -3.5092 -2.8102
v  -1.3153 -2.7004 -2.9402
v  -1.0995 -2.2423 -2.8688
v  0.3478 -6.3117 -2.8045
v  0.2197 -6.8634 -2.8589
v  0.3990 -5.4039 -2.8131
v  0.4345 -4.4634 -2.9467
v  0.5799 -3.6571 -3.0768
v  0.6775 -2.9846 -3.1063
v  0.8596 -2.6300 -3.1251
v  1.7823 -6.0905 -2.1777
v  1.8056 -6.8637 -2.1803
v  1.7818 -5.3620 -2.1819
v  2.0203 -4.7055 -2.1916
v  2.0061 -3.9267 -2.2097
v  2.2638 -3.4058 -2.1945
v  2.2291 -2.7957 -2.2498
v  2.0304 -6.0760 -0.7028
v  1.9318 -6.8113 -0.7011
v  2.0422 -5.3853 -0.7077
v  2.0728 -4.9033 -0.7130
v  2.1416 -4.2791 -0.7223
v  2.2881 -3.6258 -0.7348
v  2.4900 -2.9686 -0.7505
v  0.8741 -8.0180 3.8855
v  1.1859 -8.1760 2.4021
v  -0.9627 -8.0876 4.2135
v  -2.6513 -7.9062 3.6998
v  -3.4297 -7.9986 0.7182
v  -3.0924 -8.0710 2.4008
v  -2.9893 -8.1016 -1.8654
v  -1.7394 -7.9562 -2.7940
v  0.2197 -8.1006 -2.9221
v  1.8056 -8.1011 -2.1997
v  1.9314 -8.0498 -0.7063
v  1.7711 -8.0973 0.7168
v  -0.9842 -8.7427 5.0722
v  0.8485 -8.6717 4.7350
v  -2.6808 -8.5692 4.5239
v  1.4828 -8.8262 3.2270
v  -0.9833 -9.8366 5.1634
v  0.8464 -9.7640 4.8174
v  -2.6786 -9.6515 4.6266
v  1.4808 -9.9286 3.2805
v  -0.9353 -9.8115 3.1926
v  -3.1143 -9.7457 3.1775
v  -3.1929 -8.7407 3.1815
v  -3.1628 -8.8110 2.4242
v  1.5199 -8.9476 2.4256
v  1.7705 -8.8745 0.7222
v  -2.9892 -8.8768 -1.8866
v  -3.4288 -8.7759 0.7233
v  -1.7394 -8.8756 -2.8269
v  0.2197 -8.8756 -3.0920
v  1.8055 -8.8761 -2.2214
v  1.9312 -8.8256 -0.7147
v  -3.1606 -9.9261 2.4634
v  1.5183 -10.0627 2.4643
v  1.7697 -9.9856 0.7281
v  -2.9891 -9.9845 -1.9282
v  -3.4276 -9.8870 0.7289
v  -1.7394 -9.9830 -2.8829
v  0.2197 -9.9830 -3.1503
v  1.8055 -9.9837 -2.2653
v  1.9308 -9.9344 -0.7337
v  -0.1214 -9.9223 -1.2378
v  0.1158 -9.9635 -2.5638
v  -0.8057 -9.8263 2.5019
v  -0.4796 -9.8681 0.7370
v  2.8759 -2.2622 0.8477
v  2.1997 -2.2168 2.9029
v  -0.3155 -1.7055 3.7533
v  -2.5936 -1.1766 2.8964
v  -3.2004 -0.7600 0.8283
v  -2.6798 -0.7743 -2.3255
v  -1.1525 -1.2500 -3.4644
v  1.2426 -1.7238 -3.7778
v  2.9168 -1.9265 -2.7077
v  3.2358 -2.1379 -0.8747
v  2.8759 -1.1306 0.8477
v  2.1997 -1.0852 2.9029
v  -0.3155 -0.5740 3.7533
v  -2.5936 -0.0450 2.8964
v  -3.2004 0.3716 0.8283
v  -2.6798 0.3573 -2.3255
v  -1.1525 -0.1184 -3.4644
v  1.2426 -0.5923 -3.7778
v  2.9168 -0.7949 -2.7077
v  3.2358 -1.0063 -0.8747
v  2.4330 0.2668 0.6721
v  1.8709 0.3046 2.3802
v  -0.2196 0.7295 3.0871
v  -2.1129 1.1692 2.3749
v  -2.6173 1.5154 0.6560
v  -2.1846 1.5035 -1.9652
v  -0.9151 1.1081 -2.9118
v  1.0755 0.7143 -3.1723
v  2.4670 0.5459 -2.2829
v  2.7321 0.3702 -0.7595
v  1.3775 1.3515 0.2537
v  1.0876 1.3709 1.1349
v  0.0092 1.5901 1.4995
v  -0.9676 1.8170 1.1321
v  -1.2277 1.9956 0.2454
v  -1.0045 1.9894 -1.1068
v  -0.3497 1.7855 -1.5951
v  0.6772 1.5823 -1.7295
v  1.3951 1.4954 -1.2707
v  1.5318 1.4048 -0.4848
v  0.2529 2.3311 -0.1922
# 156 vertices

vn 0.9505 -0.0623 0.3045
vn 0.9482 -0.1099 0.2981
vn 0.6975 -0.0362 0.7157
vn 0.7564 0.2452 0.6064
vn -0.0363 -0.0785 0.9963
vn 0.0003 0.4826 0.8759
vn -0.7150 0.0477 0.6975
vn -0.7032 0.3837 0.5986
vn -0.9868 0.0583 0.1510
vn -0.9818 0.1550 0.1099
vn 0.9529 -0.1105 0.2826
vn 0.6796 -0.0458 0.7322
vn -0.0137 -0.0269 0.9995
vn -0.7437 0.0670 0.6652
vn -0.9867 0.0796 0.1416
vn 0.9616 -0.0528 0.2692
vn 0.6843 -0.1319 0.7171
vn -0.0086 -0.0340 0.9994
vn -0.7276 0.0700 0.6824
vn -0.9855 0.0821 0.1485
vn 0.9602 -0.0027 0.2792
vn 0.7083 -0.1231 0.6951
vn -0.0189 0.0676 0.9975
vn -0.7564 0.0650 0.6509
vn -0.9902 0.0553 0.1279
vn 0.9520 -0.1137 0.2842
vn 0.6825 -0.1344 0.7185
vn 0.1426 0.1658 0.9758
vn -0.7132 0.0951 0.6945
vn -0.9800 0.1423 0.1394
vn 0.9399 -0.2415 0.2412
vn 0.6831 -0.2618 0.6818
vn 0.0234 0.1802 0.9834
vn -0.8005 -0.0081 0.5992
vn -0.9782 0.1747 0.1120
vn -0.8535 0.0379 -0.5197
vn -0.8398 0.0135 -0.5428
vn -0.8481 0.0860 -0.5228
vn -0.8524 0.1053 -0.5122
vn -0.8507 0.0773 -0.5200
vn -0.8615 0.1429 -0.4873
vn -0.8095 0.2772 -0.5176
vn -0.3150 -0.0381 -0.9483
vn -0.3551 0.0679 -0.9324
vn -0.3099 -0.0164 -0.9506
vn -0.3701 -0.0178 -0.9288
vn -0.3849 -0.0986 -0.9177
vn -0.3696 0.0846 -0.9253
vn -0.2675 0.2584 -0.9283
vn 0.1869 0.0086 -0.9823
vn 0.1396 0.0626 -0.9882
vn 0.1815 -0.0616 -0.9815
vn 0.1197 -0.1654 -0.9789
vn 0.1825 -0.1197 -0.9759
vn 0.1577 -0.0900 -0.9834
vn 0.2224 -0.1352 -0.9655
vn 0.7978 -0.0053 -0.6029
vn 0.8155 0.0202 -0.5784
vn 0.7600 -0.1449 -0.6335
vn 0.8365 -0.1365 -0.5307
vn 0.7822 -0.1889 -0.5937
vn 0.8588 -0.1614 -0.4862
vn 0.8232 -0.0522 -0.5653
vn 0.9968 -0.0741 -0.0304
vn 0.9984 -0.0557 -0.0013
vn 0.9974 -0.0673 -0.0272
vn 0.9970 -0.0774 -0.0065
vn 0.9854 -0.1694 -0.0177
vn 0.9742 -0.2248 0.0194
vn 0.9571 -0.2882 -0.0308
vn 0.5575 0.6893 0.4628
vn 0.9136 0.3617 0.1855
vn -0.0176 0.7918 0.6105
vn -0.5579 0.6762 0.4811
vn -0.9986 0.0504 0.0157
vn -0.9395 0.2587 0.2246
vn -0.8470 0.0250 -0.5311
vn -0.3529 0.0869 -0.9316
vn 0.1658 0.1184 -0.9790
vn 0.8261 0.0249 -0.5630
vn 0.9999 -0.0002 0.0145
vn 0.9670 0.0283 0.2533
vn -0.0443 0.4403 0.8968
vn 0.5483 0.3994 0.7347
vn -0.5986 0.4088 0.6889
vn 0.9526 0.2422 0.1842
vn -0.0790 -0.6366 0.7671
vn 0.5171 -0.5286 0.6732
vn -0.5738 -0.5529 0.6042
vn 0.7124 -0.6649 0.2244
vn -0.0326 -0.9992 0.0247
vn -0.7265 -0.6527 0.2148
vn -0.9730 0.1493 0.1758
vn -0.9967 0.0289 0.0760
vn 0.9775 0.1931 0.0847
vn 0.9859 0.0289 0.1648
vn -0.8549 0.0168 -0.5186
vn -1.0000 -0.0005 -0.0065
vn -0.3685 0.0503 -0.9283
vn 0.1668 0.1192 -0.9788
vn 0.8399 0.0193 -0.5424
vn 0.9999 -0.0002 0.0146
vn -0.6591 -0.7385 0.1423
vn 0.6299 -0.7702 0.1002
vn 0.6893 -0.7200 0.0803
vn -0.6611 -0.6372 -0.3961
vn -0.7436 -0.6686 -0.0004
vn -0.2895 -0.6452 -0.7070
vn 0.1402 -0.6339 -0.7606
vn 0.6592 -0.6198 -0.4258
vn 0.7332 -0.6800 0.0060
vn -0.0057 -0.9997 0.0219
vn -0.0061 -0.9995 0.0310
vn -0.0117 -0.9997 0.0230
vn -0.0171 -0.9997 0.0192
vn 0.7115 -0.6572 0.2486
vn 0.1339 -0.6231 0.7706
vn -0.4033 -0.5396 0.7391
vn -0.9028 -0.3874 0.1868
vn -0.9283 -0.3394 -0.1517
vn -0.6222 -0.4270 -0.6561
vn -0.2102 -0.5113 -0.8333
vn 0.3570 -0.6406 -0.6798
vn 0.7137 -0.6708 -0.2016
vn 0.7477 -0.6550 0.1090
vn 0.9499 0.0000 0.3125
vn 0.9499 -0.0000 0.3125
vn 0.3203 0.0000 0.9473
vn -0.3521 -0.0000 0.9360
vn -0.9596 -0.0000 0.2815
vn -0.9866 -0.0000 -0.1629
vn -0.5978 -0.0000 -0.8017
vn -0.1298 -0.0000 -0.9915
vn -0.1298 0.0000 -0.9915
vn 0.5386 -0.0000 -0.8426
vn 0.9852 -0.0000 -0.1715
vn 0.9789 0.0000 0.2045
vn 0.9014 0.3221 0.2895
vn 0.3656 0.4021 0.8394
vn -0.2183 0.4569 0.8623
vn -0.8183 0.4676 0.3343
vn -0.8899 0.4313 -0.1488
vn -0.4457 0.4380 -0.7807
vn -0.0365 0.4163 -0.9085
vn 0.5256 0.4121 -0.7442
vn 0.9288 0.3501 -0.1213
vn 0.9226 0.3196 0.2159
vn 0.6619 0.7219 0.2018
vn 0.3290 0.8095 0.4863
vn 0.0236 0.8775 0.4791
vn -0.2458 0.9337 0.2602
vn -0.3420 0.9377 -0.0607
vn -0.0490 0.8966 -0.4402
vn 0.1069 0.8647 -0.4907
vn 0.3609 0.8398 -0.4056
vn 0.6494 0.7601 -0.0254
vn 0.6656 0.7214 0.1912
vn 0.6040 0.7760 0.1816
vn 0.3147 0.8520 0.4185
vn 0.0583 0.9113 0.4076
vn -0.1477 0.9603 0.2367
vn -0.2329 0.9716 -0.0428
vn 0.0151 0.9297 -0.3680
vn 0.1259 0.9051 -0.4061
vn 0.3244 0.8826 -0.3403
vn 0.5853 0.8108 -0.0084
vn 0.6038 0.7760 0.1822
# 167 vertex normals

vt 0.7666 0.2697 0.0000
vt 0.7698 0.2246 0.0000
vt 0.8657 0.2560 0.0000
vt 0.8633 0.2985 0.0000
vt 0.9627 0.2818 0.0000
vt 0.9509 0.3204 0.0000
vt 0.0309 0.2932 0.0000
vt 0.0337 0.2530 0.0000
vt 0.1302 0.2495 0.0000
vt 0.1310 0.2912 0.0000
vt 0.2248 0.2260 0.0000
vt 0.2258 0.2797 0.0000
vt 0.7714 0.1991 0.0000
vt 0.8715 0.2226 0.0000
vt 0.9676 0.2462 0.0000
vt 0.0327 0.2170 0.0000
vt 0.1330 0.2081 0.0000
vt 0.2251 0.1930 0.0000
vt 0.7744 0.1620 0.0000
vt 0.8731 0.1770 0.0000
vt 0.9740 0.1899 0.0000
vt 0.0300 0.1600 0.0000
vt 0.1297 0.1540 0.0000
vt 0.2244 0.1315 0.0000
vt 0.7765 0.1407 0.0000
vt 0.8729 0.1505 0.0000
vt 0.9787 0.1536 0.0000
vt 0.0278 0.1232 0.0000
vt 0.1326 0.1127 0.0000
vt 0.2249 0.0943 0.0000
vt 0.7795 0.1142 0.0000
vt 0.8744 0.1309 0.0000
vt 0.9732 0.1317 0.0000
vt 0.0222 0.1011 0.0000
vt 0.1302 0.0859 0.0000
vt 0.2250 0.0618 0.0000
vt 0.7806 0.0739 0.0000
vt 0.8691 0.0805 0.0000
vt 0.9809 0.0852 0.0000
vt 0.0307 0.0544 0.0000
vt 0.1341 0.0395 0.0000
vt 0.2251 0.0244 0.0000
vt 0.3561 0.2410 0.0000
vt 0.3588 0.2805 0.0000
vt 0.3559 0.1973 0.0000
vt 0.3560 0.1401 0.0000
vt 0.3572 0.0989 0.0000
vt 0.3570 0.0584 0.0000
vt 0.3611 0.0207 0.0000
vt 0.4387 0.2390 0.0000
vt 0.4347 0.2700 0.0000
vt 0.4390 0.1918 0.0000
vt 0.4333 0.1320 0.0000
vt 0.4381 0.0989 0.0000
vt 0.4395 0.0567 0.0000
vt 0.4458 0.0315 0.0000
vt 0.5404 0.2347 0.0000
vt 0.5356 0.2637 0.0000
vt 0.5402 0.1876 0.0000
vt 0.5371 0.1386 0.0000
vt 0.5403 0.0958 0.0000
vt 0.5420 0.0607 0.0000
vt 0.5493 0.0414 0.0000
vt 0.6205 0.2204 0.0000
vt 0.6210 0.2603 0.0000
vt 0.6204 0.1825 0.0000
vt 0.6271 0.1471 0.0000
vt 0.6269 0.1070 0.0000
vt 0.6346 0.0786 0.0000
vt 0.6323 0.0473 0.0000
vt 0.6975 0.2226 0.0000
vt 0.6952 0.2605 0.0000
vt 0.6996 0.1874 0.0000
vt 0.7018 0.1625 0.0000
vt 0.7040 0.1302 0.0000
vt 0.7070 0.0956 0.0000
vt 0.7091 0.0603 0.0000
vt 0.6991 0.8480 0.0000
vt 0.7589 0.8951 0.0000
vt 0.6922 0.9002 0.0000
vt 0.7757 0.8038 0.0000
vt 0.8247 0.8455 0.0000
vt 0.8244 0.7233 0.0000
vt 0.8681 0.7790 0.0000
vt 0.8241 0.6368 0.0000
vt 0.8814 0.6405 0.0000
vt 0.8795 0.7191 0.0000
vt 0.8353 0.5185 0.0000
vt 0.8923 0.5206 0.0000
vt 0.8352 0.4511 0.0000
vt 0.8890 0.4491 0.0000
vt 0.8383 0.3597 0.0000
vt 0.8955 0.3591 0.0000
vt 0.4742 0.8473 0.0000
vt 0.4752 0.9043 0.0000
vt 0.3949 0.9057 0.0000
vt 0.3949 0.8488 0.0000
vt 0.5422 0.8426 0.0000
vt 0.5441 0.8995 0.0000
vt 0.6071 0.8421 0.0000
vt 0.6104 0.8992 0.0000
vt 0.8590 0.8813 0.0000
vt 0.7944 0.9253 0.0000
vt 0.8984 0.8150 0.0000
vt 0.7258 0.9371 0.0000
vt 0.8949 0.9160 0.0000
vt 0.8154 0.9691 0.0000
vt 0.9404 0.8368 0.0000
vt 0.7329 0.9879 0.0000
vt 0.3655 0.8659 0.0000
vt 0.2813 0.8646 0.0000
vt 0.2847 0.7614 0.0000
vt 0.3507 0.7879 0.0000
vt 0.3439 0.9371 0.0000
vt 0.2822 0.9560 0.0000
vt 0.9119 0.7543 0.0000
vt 0.9567 0.7613 0.0000
vt 0.9149 0.7212 0.0000
vt 0.6904 0.9401 0.0000
vt 0.6117 0.9354 0.0000
vt 0.9281 0.5214 0.0000
vt 0.9173 0.6426 0.0000
vt 0.9311 0.4495 0.0000
vt 0.9321 0.3586 0.0000
vt 0.4755 0.9399 0.0000
vt 0.3923 0.9420 0.0000
vt 0.5450 0.9351 0.0000
vt 0.9663 0.7272 0.0000
vt 0.6933 0.9924 0.0000
vt 0.6125 0.9870 0.0000
vt 0.9791 0.5223 0.0000
vt 0.9683 0.6457 0.0000
vt 0.9821 0.4499 0.0000
vt 0.9831 0.3589 0.0000
vt 0.4755 0.9909 0.0000
vt 0.3922 0.9929 0.0000
vt 0.5456 0.9860 0.0000
vt 0.0483 0.7472 0.0000
vt 0.1135 0.7415 0.0000
vt 0.0926 0.8291 0.0000
vt 0.0360 0.8193 0.0000
vt 0.0227 0.8984 0.0000
vt 0.0636 0.9515 0.0000
vt 0.2509 0.9581 0.0000
vt 0.2524 0.8575 0.0000
vt 0.2500 0.7579 0.0000
vt 0.1770 0.9697 0.0000
vt 0.1769 0.8440 0.0000
vt 0.1759 0.7480 0.0000
vt 0.0109 0.8150 0.0000
vt 0.2253 0.3615 0.0000
vt 0.2512 0.4003 0.0000
vt 0.1801 0.4602 0.0000
vt 0.1537 0.4236 0.0000
vt 0.1106 0.5499 0.0000
vt 0.0848 0.5034 0.0000
vt 0.7217 0.8166 0.0000
vt 0.6667 0.8287 0.0000
vt 0.6719 0.7226 0.0000
vt 0.7211 0.7179 0.0000
vt 0.6641 0.6313 0.0000
vt 0.7111 0.6164 0.0000
vt 0.6246 0.4977 0.0000
vt 0.6671 0.4792 0.0000
vt 0.5795 0.4238 0.0000
vt 0.6095 0.3886 0.0000
vt 0.4863 0.3642 0.0000
vt 0.5048 0.3234 0.0000
vt 0.3997 0.3543 0.0000
vt 0.3999 0.3105 0.0000
vt 0.3218 0.3676 0.0000
vt 0.3025 0.3262 0.0000
vt 0.2752 0.4447 0.0000
vt 0.2079 0.4976 0.0000
vt 0.1461 0.5913 0.0000
vt 0.6121 0.8194 0.0000
vt 0.6256 0.7195 0.0000
vt 0.6162 0.6389 0.0000
vt 0.5862 0.5229 0.0000
vt 0.5522 0.4619 0.0000
vt 0.4774 0.4084 0.0000
vt 0.4038 0.3984 0.0000
vt 0.3359 0.4140 0.0000
vt 0.3080 0.5029 0.0000
vt 0.2520 0.5426 0.0000
vt 0.2093 0.6268 0.0000
vt 0.5439 0.7874 0.0000
vt 0.5687 0.7095 0.0000
vt 0.5604 0.6432 0.0000
vt 0.5411 0.5533 0.0000
vt 0.5152 0.5074 0.0000
vt 0.4621 0.4654 0.0000
vt 0.4063 0.4571 0.0000
vt 0.3542 0.4750 0.0000
vt 0.3513 0.5618 0.0000
vt 0.3187 0.5849 0.0000
vt 0.3040 0.6341 0.0000
vt 0.4720 0.7177 0.0000
vt 0.4963 0.6806 0.0000
vt 0.4936 0.6400 0.0000
vt 0.4851 0.5868 0.0000
vt 0.4681 0.5594 0.0000
vt 0.4375 0.5347 0.0000
vt 0.4050 0.5305 0.0000
vt 0.3761 0.5438 0.0000
vt 0.4134 0.6179 0.0000
# 206 texture coords

o police_rightleg
g police_rightleg
usemtl wire_115115115
s 1
f 1/1/1 2/2/2 3/3/3 
f 3/3/3 4/4/4 1/1/1 
f 4/4/4 3/3/3 5/5/5 
f 5/5/5 6/6/6 4/4/4 
f 6/7/6 5/8/5 7/9/7 
f 7/9/7 8/10/8 6/7/6 
f 8/10/8 7/9/7 9/11/9 
f 9/11/9 10/12/10 8/10/8 
f 2/2/2 11/13/11 12/14/12 
f 12/14/12 3/3/3 2/2/2 
f 3/3/3 12/14/12 13/15/13 
f 13/15/13 5/5/5 3/3/3 
f 5/8/5 13/16/13 14/17/14 
f 14/17/14 7/9/7 5/8/5 
f 7/9/7 14/17/14 15/18/15 
f 15/18/15 9/11/9 7/9/7 
f 11/13/11 16/19/16 17/20/17 
f 17/20/17 12/14/12 11/13/11 
f 12/14/12 17/20/17 18/21/18 
f 18/21/18 13/15/13 12/14/12 
f 13/16/13 18/22/18 19/23/19 
f 19/23/19 14/17/14 13/16/13 
f 14/17/14 19/23/19 20/24/20 
f 20/24/20 15/18/15 14/17/14 
f 16/19/16 21/25/21 22/26/22 
f 22/26/22 17/20/17 16/19/16 
f 17/20/17 22/26/22 23/27/23 
f 23/27/23 18/21/18 17/20/17 
f 18/22/18 23/28/23 24/29/24 
f 24/29/24 19/23/19 18/22/18 
f 19/23/19 24/29/24 25/30/25 
f 25/30/25 20/24/20 19/23/19 
f 21/25/21 26/31/26 27/32/27 
f 27/32/27 22/26/22 21/25/21 
f 22/26/22 27/32/27 28/33/28 
f 28/33/28 23/27/23 22/26/22 
f 23/28/23 28/34/28 29/35/29 
f 29/35/29 24/29/24 23/28/23 
f 24/29/24 29/35/29 30/36/30 
f 30/36/30 25/30/25 24/29/24 
f 26/31/26 31/37/31 32/38/32 
f 32/38/32 27/32/27 26/31/26 
f 27/32/27 32/38/32 33/39/33 
f 33/39/33 28/33/28 27/32/27 
f 28/34/28 33/40/33 34/41/34 
f 34/41/34 29/35/29 28/34/28 
f 29/35/29 34/41/34 35/42/35 
f 35/42/35 30/36/30 29/35/29 
f 9/11/9 36/43/36 37/44/37 
f 37/44/37 10/12/10 9/11/9 
f 15/18/15 38/45/38 36/43/36 
f 36/43/36 9/11/9 15/18/15 
f 20/24/20 39/46/39 38/45/38 
f 38/45/38 15/18/15 20/24/20 
f 25/30/25 40/47/40 39/46/39 
f 39/46/39 20/24/20 25/30/25 
f 30/36/30 41/48/41 40/47/40 
f 40/47/40 25/30/25 30/36/30 
f 35/42/35 42/49/42 41/48/41 
f 41/48/41 30/36/30 35/42/35 
f 36/43/36 43/50/43 44/51/44 
f 44/51/44 37/44/37 36/43/36 
f 38/45/38 45/52/45 43/50/43 
f 43/50/43 36/43/36 38/45/38 
f 39/46/39 46/53/46 45/52/45 
f 45/52/45 38/45/38 39/46/39 
f 40/47/40 47/54/47 46/53/46 
f 46/53/46 39/46/39 40/47/40 
f 41/48/41 48/55/48 47/54/47 
f 47/54/47 40/47/40 41/48/41 
f 42/49/42 49/56/49 48/55/48 
f 48/55/48 41/48/41 42/49/42 
f 43/50/43 50/57/50 51/58/51 
f 51/58/51 44/51/44 43/50/43 
f 45/52/45 52/59/52 50/57/50 
f 50/57/50 43/50/43 45/52/45 
f 46/53/46 53/60/53 52/59/52 
f 52/59/52 45/52/45 46/53/46 
f 47/54/47 54/61/54 53/60/53 
f 53/60/53 46/53/46 47/54/47 
f 48/55/48 55/62/55 54/61/54 
f 54/61/54 47/54/47 48/55/48 
f 49/56/49 56/63/56 55/62/55 
f 55/62/55 48/55/48 49/56/49 
f 50/57/50 57/64/57 58/65/58 
f 58/65/58 51/58/51 50/57/50 
f 52/59/52 59/66/59 57/64/57 
f 57/64/57 50/57/50 52/59/52 
f 53/60/53 60/67/60 59/66/59 
f 59/66/59 52/59/52 53/60/53 
f 54/61/54 61/68/61 60/67/60 
f 60/67/60 53/60/53 54/61/54 
f 55/62/55 62/69/62 61/68/61 
f 61/68/61 54/61/54 55/62/55 
f 62/69/62 55/62/55 56/63/56 
f 56/63/56 63/70/63 62/69/62 
f 57/64/57 64/71/64 65/72/65 
f 65/72/65 58/65/58 57/64/57 
f 59/66/59 66/73/66 64/71/64 
f 64/71/64 57/64/57 59/66/59 
f 60/67/60 67/74/67 66/73/66 
f 66/73/66 59/66/59 60/67/60 
f 61/68/61 68/75/68 67/74/67 
f 67/74/67 60/67/60 61/68/61 
f 62/69/62 69/76/69 68/75/68 
f 68/75/68 61/68/61 62/69/62 
f 69/76/69 62/69/62 63/70/63 
f 63/70/63 70/77/70 69/76/69 
f 64/71/64 2/2/2 1/1/1 
f 1/1/1 65/72/65 64/71/64 
f 66/73/66 11/13/11 2/2/2 
f 2/2/2 64/71/64 66/73/66 
f 67/74/67 16/19/16 11/13/11 
f 11/13/11 66/73/66 67/74/67 
f 68/75/68 21/25/21 16/19/16 
f 16/19/16 67/74/67 68/75/68 
f 69/76/69 26/31/26 21/25/21 
f 21/25/21 68/75/68 69/76/69 
f 70/77/70 31/37/31 26/31/26 
f 26/31/26 69/76/69 70/77/70 
f 4/78/4 71/79/71 72/80/72 
f 6/81/6 73/82/73 71/79/71 
f 71/79/71 4/78/4 6/81/6 
f 8/83/8 74/84/74 73/82/73 
f 73/82/73 6/81/6 8/83/8 
f 10/85/10 75/86/75 76/87/76 
f 76/87/76 8/83/8 10/85/10 
f 37/88/37 77/89/77 75/86/75 
f 75/86/75 10/85/10 37/88/37 
f 44/90/44 78/91/78 77/89/77 
f 77/89/77 37/88/37 44/90/44 
f 51/92/51 79/93/79 78/91/78 
f 78/91/78 44/90/44 51/92/51 
f 58/94/58 80/95/80 79/96/79 
f 79/96/79 51/97/51 58/94/58 
f 65/98/65 81/99/81 80/95/80 
f 80/95/80 58/94/58 65/98/65 
f 1/100/1 82/101/82 81/99/81 
f 81/99/81 65/98/65 1/100/1 
f 8/83/8 76/87/76 74/84/74 
f 4/78/4 72/80/72 82/101/82 
f 82/101/82 1/100/1 4/78/4 
f 73/82/73 83/102/83 84/103/84 
f 84/103/84 71/79/71 73/82/73 
f 74/84/74 85/104/85 83/102/83 
f 83/102/83 73/82/73 74/84/74 
f 71/79/71 84/103/84 86/105/86 
f 86/105/86 72/80/72 71/79/71 
f 83/102/83 87/106/87 88/107/88 
f 88/107/88 84/103/84 83/102/83 
f 85/104/85 89/108/89 87/106/87 
f 87/106/87 83/102/83 85/104/85 
f 84/103/84 88/107/88 90/109/90 
f 90/109/90 86/105/86 84/103/84 
f 87/110/87 91/111/91 90/112/90 
f 90/112/90 88/113/88 87/110/87 
f 89/114/89 92/115/92 91/111/91 
f 91/111/91 87/110/87 89/114/89 
f 76/87/76 93/116/93 85/104/85 
f 85/104/85 74/84/74 76/87/76 
f 89/108/89 85/104/85 93/116/93 
f 93/116/93 92/117/92 89/108/89 
f 76/87/76 94/118/94 93/116/93 
f 86/105/86 95/119/95 72/80/72 
f 72/80/72 95/119/95 96/120/96 
f 96/120/96 82/101/82 72/80/72 
f 77/89/77 97/121/97 98/122/98 
f 98/122/98 75/86/75 77/89/77 
f 78/91/78 99/123/99 97/121/97 
f 97/121/97 77/89/77 78/91/78 
f 79/93/79 100/124/100 99/123/99 
f 99/123/99 78/91/78 79/93/79 
f 80/95/80 101/125/101 100/126/100 
f 100/126/100 79/96/79 80/95/80 
f 81/99/81 102/127/102 101/125/101 
f 101/125/101 80/95/80 81/99/81 
f 82/101/82 96/120/96 102/127/102 
f 102/127/102 81/99/81 82/101/82 
f 75/86/75 98/122/98 94/118/94 
f 94/118/94 76/87/76 75/86/75 
f 94/118/94 103/128/103 92/117/92 
f 92/117/92 93/116/93 94/118/94 
f 86/105/86 90/109/90 104/129/104 
f 104/129/104 95/119/95 86/105/86 
f 95/119/95 104/129/104 105/130/105 
f 105/130/105 96/120/96 95/119/95 
f 97/121/97 106/131/106 107/132/107 
f 107/132/107 98/122/98 97/121/97 
f 99/123/99 108/133/108 106/131/106 
f 106/131/106 97/121/97 99/123/99 
f 100/124/100 109/134/109 108/133/108 
f 108/133/108 99/123/99 100/124/100 
f 101/125/101 110/135/110 109/136/109 
f 109/136/109 100/126/100 101/125/101 
f 102/127/102 111/137/111 110/135/110 
f 110/135/110 101/125/101 102/127/102 
f 96/120/96 105/130/105 111/137/111 
f 111/137/111 102/127/102 96/120/96 
f 98/122/98 107/132/107 103/128/103 
f 103/128/103 94/118/94 98/122/98 
f 110/138/110 111/139/111 112/140/112 
f 112/140/112 113/141/113 110/138/110 
f 108/142/108 113/141/113 112/140/112 
f 112/140/112 106/143/106 108/142/108 
f 103/144/103 114/145/114 91/111/91 
f 91/111/91 92/115/92 103/144/103 
f 114/145/114 104/146/104 90/112/90 
f 90/112/90 91/111/91 114/145/114 
f 103/144/103 107/147/107 115/148/115 
f 115/148/115 114/145/114 103/144/103 
f 105/149/105 104/146/104 114/145/114 
f 114/145/114 115/148/115 105/149/105 
f 106/143/106 112/140/112 115/148/115 
f 115/148/115 107/147/107 106/143/106 
f 112/140/112 111/139/111 105/149/105 
f 105/149/105 115/148/115 112/140/112 
f 110/138/110 113/141/113 109/150/109 
f 113/141/113 108/142/108 109/150/109 
s off
f 31/151/116 116/152/116 117/153/116 
f 117/153/116 32/154/116 31/151/116 
f 32/154/117 117/153/117 118/155/117 
f 118/155/117 33/156/117 32/154/117 
f 33/157/118 118/158/118 119/159/118 
f 119/159/118 34/160/118 33/157/118 
f 34/160/119 119/159/119 120/161/119 
f 120/161/119 35/162/119 34/160/119 
f 35/162/120 120/161/120 121/163/120 
f 121/163/120 42/164/120 35/162/120 
f 42/164/121 121/163/121 122/165/121 
f 122/165/121 49/166/121 42/164/121 
f 49/166/122 122/165/122 123/167/122 
f 123/167/122 56/168/122 49/166/122 
f 56/168/123 123/167/123 124/169/123 
f 124/169/123 63/170/123 56/168/123 
f 63/170/124 124/169/124 125/171/124 
f 125/171/124 70/172/124 63/170/124 
f 70/172/125 125/171/125 116/152/125 
f 116/152/125 31/151/125 70/172/125 
f 116/152/126 126/173/126 127/174/126 
f 127/174/127 117/153/127 116/152/127 
f 117/153/128 127/174/128 128/175/128 
f 128/175/128 118/155/128 117/153/128 
f 118/158/129 128/176/129 129/177/129 
f 129/177/129 119/159/129 118/158/129 
f 119/159/130 129/177/130 130/178/130 
f 130/178/130 120/161/130 119/159/130 
f 120/161/131 130/178/131 131/179/131 
f 131/179/131 121/163/131 120/161/131 
f 121/163/132 131/179/132 132/180/132 
f 132/180/132 122/165/132 121/163/132 
f 122/165/133 132/180/133 133/181/133 
f 133/181/134 123/167/134 122/165/134 
f 123/167/135 133/181/135 134/182/135 
f 134/182/135 124/169/135 123/167/135 
f 124/169/136 134/182/136 135/183/136 
f 135/183/136 125/171/136 124/169/136 
f 125/171/137 135/183/137 126/173/137 
f 126/173/137 116/152/137 125/171/137 
f 126/173/138 136/184/138 137/185/138 
f 137/185/138 127/174/138 126/173/138 
f 127/174/139 137/185/139 138/186/139 
f 138/186/139 128/175/139 127/174/139 
f 128/176/140 138/187/140 139/188/140 
f 139/188/140 129/177/140 128/176/140 
f 129/177/141 139/188/141 140/189/141 
f 140/189/141 130/178/141 129/177/141 
f 130/178/142 140/189/142 141/190/142 
f 141/190/142 131/179/142 130/178/142 
f 131/179/143 141/190/143 142/191/143 
f 142/191/143 132/180/143 131/179/143 
f 132/180/144 142/191/144 143/192/144 
f 143/192/144 133/181/144 132/180/144 
f 133/181/145 143/192/145 144/193/145 
f 144/193/145 134/182/145 133/181/145 
f 134/182/146 144/193/146 145/194/146 
f 145/194/146 135/183/146 134/182/146 
f 135/183/147 145/194/147 136/184/147 
f 136/184/147 126/173/147 135/183/147 
f 136/184/148 146/195/148 147/196/148 
f 147/196/148 137/185/148 136/184/148 
f 137/185/149 147/196/149 148/197/149 
f 148/197/149 138/186/149 137/185/149 
f 138/187/150 148/198/150 149/199/150 
f 149/199/150 139/188/150 138/187/150 
f 139/188/151 149/199/151 150/200/151 
f 150/200/151 140/189/151 139/188/151 
f 140/189/152 150/200/152 151/201/152 
f 151/201/152 141/190/152 140/189/152 
f 141/190/153 151/201/153 152/202/153 
f 152/202/153 142/191/153 141/190/153 
f 142/191/154 152/202/154 153/203/154 
f 153/203/154 143/192/154 142/191/154 
f 143/192/155 153/203/155 154/204/155 
f 154/204/155 144/193/155 143/192/155 
f 144/193/156 154/204/156 155/205/156 
f 155/205/156 145/194/156 144/193/156 
f 145/194/157 155/205/157 146/195/157 
f 146/195/157 136/184/157 145/194/157 
f 146/195/158 156/206/158 147/196/158 
f 147/196/159 156/206/159 148/197/159 
f 148/198/160 156/206/160 149/199/160 
f 149/199/161 156/206/161 150/200/161 
f 150/200/162 156/206/162 151/201/162 
f 151/201/163 156/206/163 152/202/163 
f 152/202/164 156/206/164 153/203/164 
f 153/203/165 156/206/165 154/204/165 
f 154/204/166 156/206/166 155/205/166 
f 155/205/167 156/206/167 146/195/167 
# 308 faces

