# 3ds Max Wavefront OBJ Exporter v0.99 - (c)2007 guruware
# File Created: 07.12.2023 17:44:26

mtllib police_body.mtl

#
# object police_body
#

v  -0.0000 2.1284 3.8609
v  2.2947 2.3325 3.5181
v  1.7859 5.5604 3.1770
v  -0.0000 5.4353 3.5198
v  1.5460 7.4667 2.8859
v  -0.0000 7.4736 3.2286
v  -0.0000 -1.2249 3.8103
v  2.6637 -0.7465 3.4675
v  -0.0000 -3.2631 3.8103
v  2.8540 -2.6493 3.1714
v  1.2012 8.1188 2.4378
v  -0.0000 8.1257 2.9762
v  0.6921 9.0221 1.3344
v  -0.0000 9.0291 1.8470
v  0.8802 9.5628 -0.3637
v  -0.0000 9.5697 0.0131
v  3.8251 3.1286 2.0839
v  3.1449 5.8558 1.7676
v  2.6006 7.6689 1.4525
v  4.4346 0.3767 2.2660
v  4.7260 -1.6871 1.9248
v  2.1231 8.3265 1.0542
v  1.5776 9.0221 0.0361
v  1.7200 9.3255 -0.9476
v  4.4773 3.6509 0.2866
v  3.6000 6.1890 -0.0545
v  2.9755 7.7942 -0.3457
v  5.1669 1.0833 -0.1016
v  5.5394 -1.0228 -0.4427
v  2.5697 8.4418 -0.5981
v  -0.0000 -4.0376 2.9736
v  2.8540 -3.4238 2.6309
v  4.7260 -2.4616 1.5992
v  5.3506 -1.7973 -0.6007
v  0.8802 9.5628 -1.7422
v  -0.0000 9.5697 -1.9011
v  -0.0000 -3.8925 0.7771
v  2.8540 -3.2787 0.2886
v  4.7260 -2.3164 -0.3524
v  -0.0000 -3.0967 -2.4663
v  2.9709 -2.8441 -2.1628
v  4.7831 -1.9503 -1.9489
v  4.2368 3.2848 -2.0055
v  3.2817 5.7608 -2.1661
v  2.7473 7.5200 -2.2594
v  4.8137 0.7125 -1.8319
v  4.9864 -1.1320 -1.9925
v  2.2731 8.3165 -2.3097
v  1.6452 8.9831 -2.4531
v  0.7533 9.0064 -2.6027
v  -0.0000 9.0044 -2.8737
v  4.1495 -2.0371 -3.2166
v  4.2187 -1.1320 -3.2815
v  2.8823 -2.2100 -3.9041
v  2.7392 -1.0362 -4.0130
v  -0.0000 -2.4326 -4.3731
v  -0.0000 -1.2550 -4.4380
v  -0.0000 0.3522 -4.4472
v  -0.0000 2.0425 -4.4568
v  2.3213 2.2644 -4.0318
v  2.5543 0.2546 -4.0195
v  -0.0000 5.3136 -4.1878
v  2.0400 5.5111 -3.7224
v  -0.0000 7.5144 -3.7936
v  1.6710 7.4031 -3.3307
v  -0.0000 8.1145 -3.5263
v  1.2496 8.1158 -3.1025
v  1.9108 8.2455 -2.5903
v  2.2366 7.4645 -2.7678
v  2.9316 5.6366 -2.9832
v  3.5267 2.7639 -3.0827
v  3.8570 0.4644 -3.0602
v  -1.7859 5.5604 3.1770
v  -2.2947 2.3325 3.5181
v  -1.5460 7.4667 2.8859
v  -2.6637 -0.7465 3.4675
v  -2.8540 -2.6493 3.1714
v  -1.2012 8.1188 2.4378
v  -0.6921 9.0221 1.3344
v  -0.8802 9.5628 -0.3637
v  -3.1449 5.8558 1.7676
v  -3.8251 3.1286 2.0839
v  -2.6006 7.6689 1.4525
v  -4.4346 0.3767 2.2660
v  -4.7260 -1.6871 1.9248
v  -2.1231 8.3265 1.0542
v  -1.5776 9.0221 0.0361
v  -1.7200 9.3255 -0.9476
v  -3.6000 6.1890 -0.0545
v  -4.4773 3.6509 0.2866
v  -2.9755 7.7942 -0.3457
v  -5.1669 1.0833 -0.1016
v  -5.5394 -1.0228 -0.4427
v  -2.5697 8.4418 -0.5981
v  -2.8540 -3.4238 2.6309
v  -4.7260 -2.4616 1.5992
v  -5.3506 -1.7973 -0.6007
v  -0.8802 9.5628 -1.7422
v  -2.8540 -3.2787 0.2886
v  -4.7260 -2.3164 -0.3524
v  -2.9709 -2.8441 -2.1628
v  -4.7831 -1.9503 -1.9489
v  -3.2817 5.7608 -2.1661
v  -4.2368 3.2848 -2.0055
v  -2.7473 7.5200 -2.2594
v  -4.8137 0.7125 -1.8319
v  -4.9864 -1.1320 -1.9925
v  -2.2731 8.3165 -2.3097
v  -1.6452 8.9831 -2.4531
v  -0.7533 9.0064 -2.6027
v  -4.2187 -1.1320 -3.2815
v  -4.1495 -2.0371 -3.2166
v  -2.7392 -1.0362 -4.0130
v  -2.8823 -2.2100 -3.9041
v  -2.5543 0.2546 -4.0195
v  -2.3213 2.2644 -4.0318
v  -2.0400 5.5111 -3.7224
v  -1.6710 7.4031 -3.3307
v  -1.2496 8.1158 -3.1025
v  -1.9108 8.2455 -2.5903
v  -2.2366 7.4645 -2.7678
v  -2.9316 5.6366 -2.9832
v  -3.5267 2.7639 -3.0827
v  -3.8570 0.4644 -3.0602
# 124 vertices

vn 0.0000 0.0479 0.9989
vn 0.3814 0.1063 0.9183
vn 0.4320 0.1807 0.8836
vn 0.0000 0.1292 0.9916
vn 0.4529 0.4203 0.7863
vn 0.0000 0.3013 0.9535
vn -0.0000 -0.0030 1.0000
vn 0.3705 -0.0288 0.9284
vn 0.0000 -0.4420 0.8970
vn 0.4411 -0.3289 0.8350
vn 0.3847 0.7041 0.5969
vn -0.0000 0.5799 0.8147
vn 0.3595 0.8452 0.3955
vn 0.0000 0.8504 0.5261
vn 0.2406 0.9562 0.1668
vn 0.0000 0.9840 0.1783
vn 0.7834 0.2187 0.5818
vn 0.8123 0.2919 0.5050
vn 0.7598 0.5112 0.4016
vn 0.7817 0.0989 0.6157
vn 0.8030 -0.1136 0.5851
vn 0.5960 0.7336 0.3266
vn 0.5210 0.8010 0.2947
vn 0.5553 0.8310 0.0319
vn 0.9544 0.2691 0.1293
vn 0.9371 0.3468 0.0406
vn 0.8869 0.4607 0.0350
vn 0.9767 0.2099 0.0441
vn 0.9995 -0.0061 -0.0322
vn 0.7747 0.6312 0.0389
vn -0.0000 -0.9328 0.3605
vn 0.4091 -0.8119 0.4164
vn 0.7424 -0.5838 0.3287
vn 0.8732 -0.4715 -0.1238
vn 0.1905 0.9483 -0.2540
vn -0.0000 0.9522 -0.3054
vn 0.0000 -0.9900 -0.1411
vn 0.2953 -0.9480 -0.1183
vn 0.5240 -0.8445 -0.1110
vn -0.0000 -0.9624 -0.2715
vn 0.2636 -0.9364 -0.2318
vn 0.7471 -0.5928 -0.3007
vn 0.8903 0.2348 -0.3901
vn 0.9052 0.2772 -0.3222
vn 0.8313 0.3683 -0.4163
vn 0.8987 0.1711 -0.4038
vn 0.9157 -0.0401 -0.4000
vn 0.7214 0.5037 -0.4753
vn 0.4717 0.6804 -0.5609
vn 0.1814 0.7225 -0.6672
vn 0.0000 0.7249 -0.6889
vn 0.6263 -0.5304 -0.5713
vn 0.6771 0.0555 -0.7338
vn 0.3065 -0.5559 -0.7727
vn 0.3270 0.0231 -0.9448
vn 0.0000 -0.5912 -0.8065
vn 0.0000 -0.0283 -0.9996
vn -0.0000 -0.0013 -1.0000
vn 0.0000 0.0354 -0.9994
vn 0.3890 0.0734 -0.9183
vn 0.3810 0.0421 -0.9236
vn -0.0000 0.1358 -0.9907
vn 0.4239 0.1863 -0.8864
vn 0.0000 0.3105 -0.9506
vn 0.4538 0.3605 -0.8149
vn -0.0000 0.5000 -0.8660
vn 0.3409 0.4909 -0.8018
vn 0.5325 0.3823 -0.7552
vn 0.6314 0.3553 -0.6893
vn 0.7556 0.2298 -0.6135
vn 0.7039 0.1374 -0.6969
vn 0.6637 0.1563 -0.7315
vn -0.4320 0.1807 0.8836
vn -0.3814 0.1063 0.9183
vn -0.4529 0.4203 0.7863
vn -0.3705 -0.0288 0.9284
vn -0.4411 -0.3289 0.8350
vn -0.3847 0.7041 0.5969
vn -0.3595 0.8452 0.3955
vn -0.2406 0.9562 0.1668
vn -0.8123 0.2919 0.5050
vn -0.7834 0.2187 0.5818
vn -0.7598 0.5112 0.4016
vn -0.7817 0.0989 0.6157
vn -0.8030 -0.1136 0.5851
vn -0.5960 0.7336 0.3266
vn -0.5210 0.8010 0.2947
vn -0.5553 0.8310 0.0319
vn -0.9371 0.3468 0.0406
vn -0.9544 0.2691 0.1293
vn -0.8869 0.4607 0.0350
vn -0.9767 0.2099 0.0441
vn -0.9995 -0.0061 -0.0322
vn -0.7747 0.6312 0.0389
vn -0.4091 -0.8119 0.4164
vn -0.7424 -0.5838 0.3287
vn -0.8732 -0.4715 -0.1238
vn -0.1905 0.9483 -0.2540
vn -0.2953 -0.9480 -0.1183
vn -0.5240 -0.8445 -0.1110
vn -0.2636 -0.9364 -0.2318
vn -0.7471 -0.5928 -0.3007
vn -0.9052 0.2772 -0.3222
vn -0.8903 0.2348 -0.3901
vn -0.8313 0.3683 -0.4163
vn -0.8987 0.1711 -0.4038
vn -0.9157 -0.0401 -0.4000
vn -0.7214 0.5037 -0.4753
vn -0.4717 0.6804 -0.5609
vn -0.1814 0.7225 -0.6672
vn -0.6771 0.0555 -0.7338
vn -0.6263 -0.5304 -0.5713
vn -0.3270 0.0231 -0.9448
vn -0.3065 -0.5559 -0.7727
vn -0.3810 0.0421 -0.9236
vn -0.3890 0.0734 -0.9183
vn -0.4239 0.1863 -0.8864
vn -0.4538 0.3605 -0.8149
vn -0.3409 0.4909 -0.8018
vn -0.5325 0.3823 -0.7552
vn -0.6314 0.3553 -0.6893
vn -0.7556 0.2298 -0.6135
vn -0.7039 0.1374 -0.6969
vn -0.6637 0.1563 -0.7315
# 124 vertex normals

vt 0.0141 0.3943 0.0000
vt 0.1499 0.4147 0.0000
vt 0.1178 0.6027 0.0000
vt 0.0102 0.5945 0.0000
vt 0.1072 0.7128 0.0000
vt 0.0168 0.7222 0.0000
vt 0.0323 0.1934 0.0000
vt 0.1865 0.2379 0.0000
vt 0.0488 0.0725 0.0000
vt 0.2159 0.1295 0.0000
vt 0.1034 0.7610 0.0000
vt 0.0260 0.7665 0.0000
vt 0.1182 0.8475 0.0000
vt 0.0667 0.8473 0.0000
vt 0.1918 0.9252 0.0000
vt 0.1363 0.9390 0.0000
vt 0.2681 0.4749 0.0000
vt 0.2309 0.6352 0.0000
vt 0.2047 0.7430 0.0000
vt 0.3040 0.3148 0.0000
vt 0.3427 0.1982 0.0000
vt 0.1962 0.7939 0.0000
vt 0.2100 0.8705 0.0000
vt 0.2544 0.9125 0.0000
vt 0.3719 0.5293 0.0000
vt 0.3305 0.6888 0.0000
vt 0.2984 0.7927 0.0000
vt 0.4397 0.3808 0.0000
vt 0.4845 0.2573 0.0000
vt 0.2842 0.8407 0.0000
vt 0.0732 0.0089 0.0000
vt 0.2367 0.0782 0.0000
vt 0.3620 0.1534 0.0000
vt 0.4956 0.2104 0.0000
vt 0.8402 0.8967 0.0000
vt 0.8108 0.8452 0.0000
vt 0.8634 0.7804 0.0000
vt 0.9140 0.8020 0.0000
vt 0.7880 0.7821 0.0000
vt 0.3420 0.7615 0.0000
vt 0.3899 0.6061 0.0000
vt 0.5006 0.6566 0.0000
vt 0.4599 0.8147 0.0000
vt 0.3502 0.8914 0.0000
vt 0.4493 0.9356 0.0000
vt 0.4464 0.9824 0.0000
vt 0.6659 0.7396 0.0000
vt 0.5800 0.8808 0.0000
vt 0.5285 0.9801 0.0000
vt 0.6229 0.6001 0.0000
vt 0.5431 0.4502 0.0000
vt 0.6703 0.3867 0.0000
vt 0.7378 0.5326 0.0000
vt 0.6834 0.6932 0.0000
vt 0.7848 0.6324 0.0000
vt 0.5147 0.2855 0.0000
vt 0.6138 0.2366 0.0000
vt 0.4979 0.1523 0.0000
vt 0.5946 0.1246 0.0000
vt 0.7217 0.7295 0.0000
vt 0.8139 0.6780 0.0000
vt 0.8521 0.7145 0.0000
vt 0.5014 0.1023 0.0000
vt 0.5880 0.0736 0.0000
vt 0.9028 0.7297 0.0000
vt 0.9516 0.7352 0.0000
vt 0.6760 0.0530 0.0000
vt 0.6838 0.1076 0.0000
vt 0.7653 0.0320 0.0000
vt 0.7837 0.1025 0.0000
vt 0.9428 0.0000 0.0000
vt 0.9512 0.0719 0.0000
vt 0.6076 0.9742 0.0000
vt 0.6720 0.9247 0.0000
vt 0.7648 0.7916 0.0000
vt 0.9620 0.1702 0.0000
vt 0.9726 0.2746 0.0000
vt 0.8308 0.2995 0.0000
vt 0.8031 0.1798 0.0000
vt 0.9846 0.4793 0.0000
vt 0.8577 0.4958 0.0000
vt 0.9800 0.6219 0.0000
vt 0.8745 0.6125 0.0000
vt 0.9727 0.6644 0.0000
vt 0.8922 0.6608 0.0000
vt 0.8414 0.6710 0.0000
vt 0.8272 0.6226 0.0000
vt 0.7888 0.5122 0.0000
vt 0.7420 0.3417 0.0000
vt 0.7057 0.2052 0.0000
# 90 texture coords

o police_body
g police_body
usemtl wire_115115115
s 1
f 1/1/1 2/2/2 3/3/3 
f 3/3/3 4/4/4 1/1/1 
f 4/4/4 3/3/3 5/5/5 
f 5/5/5 6/6/6 4/4/4 
f 2/2/2 1/1/1 7/7/7 
f 7/7/7 8/8/8 2/2/2 
f 8/8/8 7/7/7 9/9/9 
f 9/9/9 10/10/10 8/8/8 
f 6/6/6 5/5/5 11/11/11 
f 11/11/11 12/12/12 6/6/6 
f 12/12/12 11/11/11 13/13/13 
f 13/13/13 14/14/14 12/12/12 
f 14/14/14 13/13/13 15/15/15 
f 15/15/15 16/16/16 14/14/14 
f 3/3/3 2/2/2 17/17/17 
f 17/17/17 18/18/18 3/3/3 
f 5/5/5 3/3/3 18/18/18 
f 18/18/18 19/19/19 5/5/5 
f 2/2/2 8/8/8 20/20/20 
f 20/20/20 17/17/17 2/2/2 
f 8/8/8 10/10/10 21/21/21 
f 21/21/21 20/20/20 8/8/8 
f 11/11/11 5/5/5 19/19/19 
f 19/19/19 22/22/22 11/11/11 
f 13/13/13 11/11/11 22/22/22 
f 22/22/22 23/23/23 13/13/13 
f 15/15/15 13/13/13 23/23/23 
f 23/23/23 24/24/24 15/15/15 
f 18/18/18 17/17/17 25/25/25 
f 25/25/25 26/26/26 18/18/18 
f 19/19/19 18/18/18 26/26/26 
f 26/26/26 27/27/27 19/19/19 
f 17/17/17 20/20/20 28/28/28 
f 28/28/28 25/25/25 17/17/17 
f 20/20/20 21/21/21 29/29/29 
f 29/29/29 28/28/28 20/20/20 
f 22/22/22 19/19/19 27/27/27 
f 27/27/27 30/30/30 22/22/22 
f 23/23/23 22/22/22 30/30/30 
f 30/30/30 24/24/24 23/23/23 
f 10/10/10 9/9/9 31/31/31 
f 31/31/31 32/32/32 10/10/10 
f 21/21/21 10/10/10 32/32/32 
f 32/32/32 33/33/33 21/21/21 
f 29/29/29 21/21/21 33/33/33 
f 33/33/33 34/34/34 29/29/29 
f 16/35/16 15/36/15 35/37/35 
f 35/37/35 36/38/36 16/35/16 
f 15/36/15 24/39/24 35/37/35 
f 32/40/32 31/41/31 37/42/37 
f 37/42/37 38/43/38 32/40/32 
f 33/44/33 32/40/32 38/43/38 
f 38/43/38 39/45/39 33/44/33 
f 34/46/34 33/44/33 39/45/39 
f 38/43/38 37/42/37 40/47/40 
f 40/47/40 41/48/41 38/43/38 
f 39/45/39 38/43/38 41/48/41 
f 41/48/41 42/49/42 39/45/39 
f 34/46/34 39/45/39 42/49/42 
f 26/50/26 25/51/25 43/52/43 
f 43/52/43 44/53/44 26/50/26 
f 27/54/27 26/50/26 44/53/44 
f 44/53/44 45/55/45 27/54/27 
f 25/51/25 28/56/28 46/57/46 
f 46/57/46 43/52/43 25/51/25 
f 28/56/28 29/58/29 47/59/47 
f 47/59/47 46/57/46 28/56/28 
f 30/60/30 27/54/27 45/55/45 
f 45/55/45 48/61/48 30/60/30 
f 24/39/24 30/60/30 48/61/48 
f 48/61/48 49/62/49 24/39/24 
f 29/58/29 34/63/34 42/64/42 
f 42/64/42 47/59/47 29/58/29 
f 36/38/36 35/37/35 50/65/50 
f 50/65/50 51/66/51 36/38/36 
f 49/62/49 50/65/50 35/37/35 
f 35/37/35 24/39/24 49/62/49 
f 47/59/47 42/64/42 52/67/52 
f 52/67/52 53/68/53 47/59/47 
f 53/68/53 52/67/52 54/69/54 
f 54/69/54 55/70/55 53/68/53 
f 55/70/55 54/69/54 56/71/56 
f 56/71/56 57/72/57 55/70/55 
f 52/73/52 41/48/41 54/74/54 
f 56/75/56 54/74/54 41/48/41 
f 41/48/41 40/47/40 56/75/56 
f 58/76/58 59/77/59 60/78/60 
f 60/78/60 61/79/61 58/76/58 
f 60/78/60 59/77/59 62/80/62 
f 62/80/62 63/81/63 60/78/60 
f 63/81/63 62/80/62 64/82/64 
f 64/82/64 65/83/65 63/81/63 
f 65/83/65 64/82/64 66/84/66 
f 66/84/66 67/85/67 65/83/65 
f 67/85/67 66/84/66 51/66/51 
f 51/66/51 50/65/50 67/85/67 
f 49/62/49 68/86/68 67/85/67 
f 67/85/67 50/65/50 49/62/49 
f 48/61/48 45/55/45 69/87/69 
f 69/87/69 68/86/68 48/61/48 
f 49/62/49 48/61/48 68/86/68 
f 45/55/45 44/53/44 70/88/70 
f 70/88/70 69/87/69 45/55/45 
f 71/89/71 70/88/70 44/53/44 
f 44/53/44 43/52/43 71/89/71 
f 43/52/43 46/57/46 72/90/72 
f 72/90/72 71/89/71 43/52/43 
f 52/73/52 42/49/42 41/48/41 
f 46/57/46 47/59/47 53/68/53 
f 53/68/53 72/90/72 46/57/46 
f 61/79/61 55/70/55 57/72/57 
f 57/72/57 58/76/58 61/79/61 
f 55/70/55 61/79/61 72/90/72 
f 72/90/72 53/68/53 55/70/55 
f 72/90/72 61/79/61 60/78/60 
f 60/78/60 71/89/71 72/90/72 
f 71/89/71 60/78/60 63/81/63 
f 63/81/63 70/88/70 71/89/71 
f 70/88/70 63/81/63 65/83/65 
f 65/83/65 69/87/69 70/88/70 
f 65/83/65 67/85/67 68/86/68 
f 68/86/68 69/87/69 65/83/65 
f 1/1/1 4/4/4 73/3/73 
f 73/3/73 74/2/74 1/1/1 
f 4/4/4 6/6/6 75/5/75 
f 75/5/75 73/3/73 4/4/4 
f 74/2/74 76/8/76 7/7/7 
f 7/7/7 1/1/1 74/2/74 
f 76/8/76 77/10/77 9/9/9 
f 9/9/9 7/7/7 76/8/76 
f 6/6/6 12/12/12 78/11/78 
f 78/11/78 75/5/75 6/6/6 
f 12/12/12 14/14/14 79/13/79 
f 79/13/79 78/11/78 12/12/12 
f 14/14/14 16/16/16 80/15/80 
f 80/15/80 79/13/79 14/14/14 
f 73/3/73 81/18/81 82/17/82 
f 82/17/82 74/2/74 73/3/73 
f 75/5/75 83/19/83 81/18/81 
f 81/18/81 73/3/73 75/5/75 
f 74/2/74 82/17/82 84/20/84 
f 84/20/84 76/8/76 74/2/74 
f 76/8/76 84/20/84 85/21/85 
f 85/21/85 77/10/77 76/8/76 
f 78/11/78 86/22/86 83/19/83 
f 83/19/83 75/5/75 78/11/78 
f 79/13/79 87/23/87 86/22/86 
f 86/22/86 78/11/78 79/13/79 
f 80/15/80 88/24/88 87/23/87 
f 87/23/87 79/13/79 80/15/80 
f 81/18/81 89/26/89 90/25/90 
f 90/25/90 82/17/82 81/18/81 
f 83/19/83 91/27/91 89/26/89 
f 89/26/89 81/18/81 83/19/83 
f 82/17/82 90/25/90 92/28/92 
f 92/28/92 84/20/84 82/17/82 
f 84/20/84 92/28/92 93/29/93 
f 93/29/93 85/21/85 84/20/84 
f 86/22/86 94/30/94 91/27/91 
f 91/27/91 83/19/83 86/22/86 
f 87/23/87 88/24/88 94/30/94 
f 94/30/94 86/22/86 87/23/87 
f 77/10/77 95/32/95 31/31/31 
f 31/31/31 9/9/9 77/10/77 
f 85/21/85 96/33/96 95/32/95 
f 95/32/95 77/10/77 85/21/85 
f 93/29/93 97/34/97 96/33/96 
f 96/33/96 85/21/85 93/29/93 
f 16/35/16 36/38/36 98/37/98 
f 98/37/98 80/36/80 16/35/16 
f 80/36/80 98/37/98 88/39/88 
f 95/40/95 99/43/99 37/42/37 
f 37/42/37 31/41/31 95/40/95 
f 96/44/96 100/45/100 99/43/99 
f 99/43/99 95/40/95 96/44/96 
f 97/46/97 100/45/100 96/44/96 
f 99/43/99 101/48/101 40/47/40 
f 40/47/40 37/42/37 99/43/99 
f 100/45/100 102/49/102 101/48/101 
f 101/48/101 99/43/99 100/45/100 
f 97/46/97 102/49/102 100/45/100 
f 89/50/89 103/53/103 104/52/104 
f 104/52/104 90/51/90 89/50/89 
f 91/54/91 105/55/105 103/53/103 
f 103/53/103 89/50/89 91/54/91 
f 90/51/90 104/52/104 106/57/106 
f 106/57/106 92/56/92 90/51/90 
f 92/56/92 106/57/106 107/59/107 
f 107/59/107 93/58/93 92/56/92 
f 94/60/94 108/61/108 105/55/105 
f 105/55/105 91/54/91 94/60/94 
f 88/39/88 109/62/109 108/61/108 
f 108/61/108 94/60/94 88/39/88 
f 93/58/93 107/59/107 102/64/102 
f 102/64/102 97/63/97 93/58/93 
f 36/38/36 51/66/51 110/65/110 
f 110/65/110 98/37/98 36/38/36 
f 109/62/109 88/39/88 98/37/98 
f 98/37/98 110/65/110 109/62/109 
f 107/59/107 111/68/111 112/67/112 
f 112/67/112 102/64/102 107/59/107 
f 111/68/111 113/70/113 114/69/114 
f 114/69/114 112/67/112 111/68/111 
f 113/70/113 57/72/57 56/71/56 
f 56/71/56 114/69/114 113/70/113 
f 112/73/112 114/74/114 101/48/101 
f 56/75/56 40/47/40 101/48/101 
f 101/48/101 114/74/114 56/75/56 
f 58/76/58 115/79/115 116/78/116 
f 116/78/116 59/77/59 58/76/58 
f 116/78/116 117/81/117 62/80/62 
f 62/80/62 59/77/59 116/78/116 
f 117/81/117 118/83/118 64/82/64 
f 64/82/64 62/80/62 117/81/117 
f 118/83/118 119/85/119 66/84/66 
f 66/84/66 64/82/64 118/83/118 
f 119/85/119 110/65/110 51/66/51 
f 51/66/51 66/84/66 119/85/119 
f 109/62/109 110/65/110 119/85/119 
f 119/85/119 120/86/120 109/62/109 
f 108/61/108 120/86/120 121/87/121 
f 121/87/121 105/55/105 108/61/108 
f 109/62/109 120/86/120 108/61/108 
f 105/55/105 121/87/121 122/88/122 
f 122/88/122 103/53/103 105/55/105 
f 123/89/123 104/52/104 103/53/103 
f 103/53/103 122/88/122 123/89/123 
f 104/52/104 123/89/123 124/90/124 
f 124/90/124 106/57/106 104/52/104 
f 112/73/112 101/48/101 102/49/102 
f 106/57/106 124/90/124 111/68/111 
f 111/68/111 107/59/107 106/57/106 
f 115/79/115 58/76/58 57/72/57 
f 57/72/57 113/70/113 115/79/115 
f 113/70/113 111/68/111 124/90/124 
f 124/90/124 115/79/115 113/70/113 
f 124/90/124 123/89/123 116/78/116 
f 116/78/116 115/79/115 124/90/124 
f 123/89/123 122/88/122 117/81/117 
f 117/81/117 116/78/116 123/89/123 
f 122/88/122 121/87/121 118/83/118 
f 118/83/118 117/81/117 122/88/122 
f 118/83/118 121/87/121 120/86/120 
f 120/86/120 119/85/119 118/83/118 
# 244 faces

