# 3ds Max Wavefront OBJ Exporter v0.99 - (c)2007 guruware
# File Created: 07.12.2023 18:12:21

mtllib police_leftleg.mtl

#
# object police_leftleg
#

v  -1.7720 -6.8570 0.7063
v  -0.8085 -7.1381 2.4137
v  -0.9304 -6.3198 2.3935
v  -1.8845 -5.9850 0.6973
v  0.7993 -7.2080 3.1321
v  0.8394 -6.4292 3.2247
v  2.6086 -7.0274 2.4156
v  2.5029 -6.2255 2.3955
v  3.3042 -6.7582 0.7079
v  3.1442 -5.7302 0.6975
v  -0.9147 -5.6632 2.3793
v  -1.9569 -5.4908 0.6917
v  0.7815 -5.7337 3.2562
v  2.5178 -5.4216 2.3781
v  3.1455 -5.0890 0.6902
v  -1.0747 -4.8020 2.3632
v  -2.0174 -4.7639 0.6827
v  0.6470 -4.6273 3.2987
v  2.3182 -4.3889 2.3594
v  2.9817 -3.9093 0.6748
v  -1.2023 -4.3081 2.3553
v  -2.0184 -4.3443 0.6772
v  0.5635 -3.9129 3.3203
v  2.3451 -3.5898 2.3480
v  2.9599 -3.1857 0.6644
v  -1.2547 -3.9342 2.3500
v  -1.9992 -3.8233 0.6699
v  0.3763 -3.5160 3.2458
v  2.2328 -3.0827 2.3421
v  2.9166 -2.5533 0.6545
v  -1.6425 -3.0332 2.3395
v  -2.1956 -3.0703 0.6584
v  0.4149 -2.6150 3.0351
v  2.2783 -2.1823 2.3342
v  2.7747 -1.8416 0.6426
v  2.9894 -6.8640 -1.8453
v  3.0129 -6.0908 -1.8413
v  2.9011 -5.2430 -1.8445
v  2.7745 -4.1343 -1.8606
v  2.6409 -3.3388 -1.8807
v  2.5864 -2.5516 -1.9073
v  2.3489 -1.8533 -1.9372
v  1.7397 -6.7990 -2.5935
v  1.6115 -6.2107 -2.6283
v  1.5601 -5.3028 -2.7686
v  1.5248 -4.1342 -2.6857
v  1.3912 -3.5092 -2.8102
v  1.3153 -2.7004 -2.9402
v  1.0995 -2.2423 -2.8688
v  -0.2197 -6.8634 -2.8589
v  -0.3478 -6.3117 -2.8045
v  -0.3990 -5.4039 -2.8131
v  -0.4345 -4.4634 -2.9467
v  -0.5799 -3.6571 -3.0768
v  -0.6775 -2.9846 -3.1063
v  -0.8596 -2.6300 -3.1251
v  -1.8056 -6.8637 -2.1803
v  -1.7823 -6.0905 -2.1777
v  -1.7818 -5.3620 -2.1819
v  -2.0203 -4.7055 -2.1916
v  -2.0061 -3.9267 -2.2097
v  -2.2638 -3.4058 -2.1945
v  -2.2291 -2.7957 -2.2498
v  -1.9318 -6.8113 -0.7011
v  -2.0304 -6.0760 -0.7028
v  -2.0422 -5.3853 -0.7077
v  -2.0728 -4.9033 -0.7130
v  -2.1416 -4.2791 -0.7223
v  -2.2881 -3.6258 -0.7348
v  -2.4900 -2.9686 -0.7505
v  -1.1859 -8.1760 2.4021
v  -0.8741 -8.0180 3.8855
v  0.9627 -8.0876 4.2135
v  2.6513 -7.9062 3.6998
v  3.0924 -8.0710 2.4008
v  3.4297 -7.9986 0.7182
v  2.9893 -8.1016 -1.8654
v  1.7394 -7.9562 -2.7940
v  -0.2197 -8.1006 -2.9221
v  -1.8056 -8.1011 -2.1997
v  -1.9314 -8.0498 -0.7063
v  -1.7711 -8.0973 0.7168
v  -0.8485 -8.6717 4.7350
v  0.9842 -8.7427 5.0722
v  2.6808 -8.5692 4.5239
v  -1.4828 -8.8262 3.2270
v  -0.8464 -9.7640 4.8174
v  0.9833 -9.8366 5.1634
v  2.6786 -9.6515 4.6266
v  -1.4808 -9.9286 3.2805
v  0.9353 -9.8115 3.1926
v  3.1143 -9.7457 3.1775
v  3.1929 -8.7407 3.1815
v  3.1628 -8.8110 2.4242
v  -1.5199 -8.9476 2.4256
v  -1.7705 -8.8745 0.7222
v  3.4288 -8.7759 0.7233
v  2.9892 -8.8768 -1.8866
v  1.7394 -8.8756 -2.8269
v  -0.2197 -8.8756 -3.0920
v  -1.8055 -8.8761 -2.2214
v  -1.9312 -8.8256 -0.7147
v  3.1606 -9.9261 2.4634
v  -1.5183 -10.0627 2.4643
v  -1.7697 -9.9856 0.7281
v  3.4276 -9.8870 0.7289
v  2.9891 -9.9845 -1.9282
v  1.7394 -9.9830 -2.8829
v  -0.2197 -9.9830 -3.1503
v  -1.8055 -9.9837 -2.2653
v  -1.9308 -9.9344 -0.7337
v  -0.1157 -9.9635 -2.5638
v  0.1214 -9.9223 -1.2378
v  0.8057 -9.8263 2.5019
v  0.4796 -9.8681 0.7370
v  -2.1997 -2.2168 2.9029
v  -2.8759 -2.2622 0.8477
v  0.3155 -1.7055 3.7533
v  2.5936 -1.1766 2.8964
v  3.2004 -0.7600 0.8283
v  2.6798 -0.7743 -2.3255
v  1.1525 -1.2500 -3.4644
v  -1.2426 -1.7238 -3.7778
v  -2.9168 -1.9265 -2.7077
v  -3.2358 -2.1379 -0.8747
v  -2.1997 -1.0852 2.9029
v  -2.8759 -1.1306 0.8477
v  0.3155 -0.5740 3.7533
v  2.5936 -0.0450 2.8964
v  3.2004 0.3716 0.8283
v  2.6798 0.3573 -2.3255
v  1.1525 -0.1184 -3.4644
v  -1.2426 -0.5923 -3.7778
v  -2.9168 -0.7949 -2.7077
v  -3.2358 -1.0063 -0.8747
v  -1.8709 0.3046 2.3802
v  -2.4330 0.2668 0.6721
v  0.2196 0.7295 3.0871
v  2.1129 1.1692 2.3749
v  2.6173 1.5154 0.6560
v  2.1846 1.5035 -1.9652
v  0.9151 1.1081 -2.9118
v  -1.0755 0.7143 -3.1723
v  -2.4670 0.5459 -2.2829
v  -2.7321 0.3702 -0.7595
v  -1.0876 1.3709 1.1349
v  -1.3775 1.3515 0.2537
v  -0.0092 1.5901 1.4995
v  0.9676 1.8170 1.1321
v  1.2277 1.9956 0.2454
v  1.0045 1.9894 -1.1068
v  0.3497 1.7855 -1.5951
v  -0.6772 1.5823 -1.7295
v  -1.3951 1.4954 -1.2707
v  -1.5318 1.4048 -0.4848
v  -0.2529 2.3311 -0.1922
# 156 vertices

vn -0.9505 -0.0623 0.3045
vn -0.7564 0.2452 0.6064
vn -0.6975 -0.0362 0.7157
vn -0.9482 -0.1099 0.2981
vn -0.0003 0.4826 0.8759
vn 0.0363 -0.0785 0.9963
vn 0.7032 0.3837 0.5986
vn 0.7150 0.0477 0.6975
vn 0.9818 0.1550 0.1099
vn 0.9868 0.0583 0.1510
vn -0.6796 -0.0458 0.7322
vn -0.9529 -0.1105 0.2826
vn 0.0137 -0.0269 0.9995
vn 0.7437 0.0670 0.6652
vn 0.9867 0.0796 0.1416
vn -0.6843 -0.1319 0.7171
vn -0.9616 -0.0528 0.2692
vn 0.0086 -0.0340 0.9994
vn 0.7276 0.0700 0.6824
vn 0.9855 0.0821 0.1485
vn -0.7083 -0.1231 0.6951
vn -0.9602 -0.0027 0.2792
vn 0.0189 0.0676 0.9975
vn 0.7564 0.0650 0.6509
vn 0.9902 0.0553 0.1279
vn -0.6825 -0.1344 0.7185
vn -0.9520 -0.1137 0.2842
vn -0.1426 0.1658 0.9758
vn 0.7132 0.0951 0.6945
vn 0.9800 0.1423 0.1394
vn -0.6831 -0.2618 0.6818
vn -0.9399 -0.2415 0.2412
vn -0.0234 0.1802 0.9834
vn 0.8005 -0.0081 0.5992
vn 0.9782 0.1747 0.1120
vn 0.8398 0.0135 -0.5428
vn 0.8535 0.0379 -0.5197
vn 0.8481 0.0860 -0.5228
vn 0.8524 0.1053 -0.5122
vn 0.8507 0.0773 -0.5200
vn 0.8615 0.1429 -0.4873
vn 0.8095 0.2772 -0.5176
vn 0.3551 0.0679 -0.9324
vn 0.3150 -0.0381 -0.9483
vn 0.3099 -0.0164 -0.9506
vn 0.3701 -0.0178 -0.9288
vn 0.3849 -0.0986 -0.9177
vn 0.3696 0.0846 -0.9253
vn 0.2675 0.2584 -0.9283
vn -0.1396 0.0626 -0.9882
vn -0.1869 0.0086 -0.9823
vn -0.1815 -0.0616 -0.9815
vn -0.1197 -0.1654 -0.9789
vn -0.1825 -0.1197 -0.9759
vn -0.1577 -0.0900 -0.9834
vn -0.2224 -0.1352 -0.9655
vn -0.8155 0.0202 -0.5784
vn -0.7978 -0.0053 -0.6029
vn -0.7600 -0.1449 -0.6335
vn -0.8365 -0.1365 -0.5307
vn -0.7822 -0.1889 -0.5937
vn -0.8588 -0.1614 -0.4862
vn -0.8232 -0.0522 -0.5653
vn -0.9984 -0.0557 -0.0013
vn -0.9968 -0.0741 -0.0304
vn -0.9974 -0.0673 -0.0272
vn -0.9970 -0.0774 -0.0065
vn -0.9854 -0.1694 -0.0177
vn -0.9742 -0.2248 0.0194
vn -0.9571 -0.2882 -0.0308
vn -0.9136 0.3617 0.1855
vn -0.5575 0.6893 0.4628
vn 0.0176 0.7918 0.6105
vn 0.5579 0.6762 0.4811
vn 0.9395 0.2587 0.2246
vn 0.9986 0.0504 0.0157
vn 0.8470 0.0250 -0.5311
vn 0.3529 0.0869 -0.9316
vn -0.1658 0.1184 -0.9790
vn -0.8261 0.0249 -0.5630
vn -0.9999 -0.0002 0.0145
vn -0.9670 0.0283 0.2533
vn -0.5483 0.3994 0.7347
vn 0.0443 0.4403 0.8968
vn 0.5986 0.4088 0.6889
vn -0.9526 0.2422 0.1842
vn -0.5171 -0.5286 0.6732
vn 0.0790 -0.6366 0.7671
vn 0.5738 -0.5529 0.6042
vn -0.7124 -0.6649 0.2244
vn 0.0326 -0.9992 0.0247
vn 0.7265 -0.6527 0.2148
vn 0.9730 0.1493 0.1758
vn 0.9967 0.0289 0.0760
vn -0.9775 0.1931 0.0847
vn -0.9859 0.0289 0.1648
vn 1.0000 -0.0005 -0.0065
vn 0.8549 0.0168 -0.5186
vn 0.3685 0.0503 -0.9283
vn -0.1668 0.1192 -0.9788
vn -0.8399 0.0193 -0.5424
vn -0.9999 -0.0002 0.0146
vn 0.6591 -0.7385 0.1423
vn -0.6299 -0.7702 0.1002
vn -0.6893 -0.7200 0.0803
vn 0.7436 -0.6686 -0.0004
vn 0.6611 -0.6372 -0.3961
vn 0.2895 -0.6452 -0.7070
vn -0.1402 -0.6339 -0.7606
vn -0.6592 -0.6198 -0.4258
vn -0.7332 -0.6800 0.0060
vn 0.0061 -0.9995 0.0310
vn 0.0057 -0.9997 0.0219
vn 0.0117 -0.9997 0.0230
vn 0.0171 -0.9997 0.0192
vn -0.7115 -0.6572 0.2486
vn -0.1339 -0.6231 0.7706
vn 0.4033 -0.5396 0.7391
vn 0.9028 -0.3874 0.1868
vn 0.9283 -0.3394 -0.1517
vn 0.6222 -0.4270 -0.6561
vn 0.2102 -0.5113 -0.8333
vn -0.3570 -0.6406 -0.6798
vn -0.7137 -0.6708 -0.2016
vn -0.7477 -0.6550 0.1090
vn -0.9499 -0.0000 0.3125
vn -0.9499 0.0000 0.3125
vn -0.3203 -0.0000 0.9473
vn 0.3521 -0.0000 0.9360
vn 0.3521 0.0000 0.9360
vn 0.9596 -0.0000 0.2815
vn 0.9596 0.0000 0.2815
vn 0.9866 -0.0000 -0.1629
vn 0.5978 -0.0000 -0.8017
vn 0.5978 0.0000 -0.8017
vn 0.1298 0.0000 -0.9915
vn 0.1298 -0.0000 -0.9915
vn -0.5386 0.0000 -0.8426
vn -0.5386 -0.0000 -0.8426
vn -0.9852 -0.0000 -0.1715
vn -0.9789 0.0000 0.2045
vn -0.9789 -0.0000 0.2045
vn -0.9014 0.3221 0.2895
vn -0.3656 0.4021 0.8394
vn 0.2183 0.4569 0.8623
vn 0.8183 0.4676 0.3343
vn 0.8899 0.4313 -0.1488
vn 0.4457 0.4380 -0.7807
vn 0.0365 0.4163 -0.9085
vn -0.5256 0.4121 -0.7442
vn -0.9288 0.3501 -0.1213
vn -0.9226 0.3196 0.2159
vn -0.6619 0.7219 0.2018
vn -0.3290 0.8095 0.4863
vn -0.0236 0.8775 0.4791
vn 0.2458 0.9337 0.2602
vn 0.3420 0.9377 -0.0607
vn 0.0490 0.8966 -0.4402
vn -0.1069 0.8647 -0.4907
vn -0.3609 0.8398 -0.4056
vn -0.6494 0.7601 -0.0254
vn -0.6656 0.7214 0.1912
vn -0.6040 0.7760 0.1816
vn -0.3147 0.8520 0.4185
vn -0.0583 0.9113 0.4076
vn 0.1477 0.9603 0.2367
vn 0.2329 0.9716 -0.0428
vn -0.0151 0.9297 -0.3680
vn -0.1259 0.9051 -0.4061
vn -0.3244 0.8826 -0.3403
vn -0.5853 0.8108 -0.0084
vn -0.6038 0.7760 0.1822
# 172 vertex normals

vt 0.2239 0.2341 0.0000
vt 0.1266 0.2576 0.0000
vt 0.1264 0.2154 0.0000
vt 0.2229 0.1893 0.0000
vt 0.0387 0.2746 0.0000
vt 0.0291 0.2358 0.0000
vt 0.9525 0.2877 0.0000
vt 0.8535 0.2821 0.0000
vt 0.8558 0.2409 0.0000
vt 0.9512 0.2479 0.0000
vt 0.7600 0.2671 0.0000
vt 0.7630 0.2140 0.0000
vt 0.1224 0.1820 0.0000
vt 0.2226 0.1640 0.0000
vt 0.0261 0.2004 0.0000
vt 0.8546 0.1998 0.0000
vt 0.9535 0.2123 0.0000
vt 0.7639 0.1814 0.0000
vt 0.1232 0.1369 0.0000
vt 0.2216 0.1272 0.0000
vt 0.0227 0.1443 0.0000
vt 0.8598 0.1463 0.0000
vt 0.9584 0.1560 0.0000
vt 0.7670 0.1205 0.0000
vt 0.1247 0.1107 0.0000
vt 0.2206 0.1059 0.0000
vt 0.0199 0.1082 0.0000
vt 0.8586 0.1053 0.0000
vt 0.9619 0.1196 0.0000
vt 0.7679 0.0838 0.0000
vt 0.1243 0.0912 0.0000
vt 0.2188 0.0796 0.0000
vt 0.0265 0.0868 0.0000
vt 0.8620 0.0789 0.0000
vt 0.9683 0.0980 0.0000
vt 0.7690 0.0516 0.0000
vt 0.1321 0.0417 0.0000
vt 0.2198 0.0396 0.0000
vt 0.0213 0.0405 0.0000
vt 0.8598 0.0328 0.0000
vt 0.9615 0.0514 0.0000
vt 0.7704 0.0145 0.0000
vt 0.6281 0.2628 0.0000
vt 0.6324 0.2238 0.0000
vt 0.6342 0.1806 0.0000
vt 0.6364 0.1240 0.0000
vt 0.6369 0.0831 0.0000
vt 0.6387 0.0431 0.0000
vt 0.6362 0.0056 0.0000
vt 0.5533 0.2494 0.0000
vt 0.5506 0.2186 0.0000
vt 0.5522 0.1718 0.0000
vt 0.5603 0.1129 0.0000
vt 0.5569 0.0800 0.0000
vt 0.5572 0.0381 0.0000
vt 0.5521 0.0129 0.0000
vt 0.4535 0.2389 0.0000
vt 0.4499 0.2100 0.0000
vt 0.4521 0.1634 0.0000
vt 0.4573 0.1150 0.0000
vt 0.4560 0.0725 0.0000
vt 0.4559 0.0377 0.0000
vt 0.4495 0.0183 0.0000
vt 0.3688 0.2318 0.0000
vt 0.3711 0.1923 0.0000
vt 0.3729 0.1548 0.0000
vt 0.3679 0.1195 0.0000
vt 0.3699 0.0798 0.0000
vt 0.3637 0.0513 0.0000
vt 0.3673 0.0205 0.0000
vt 0.2952 0.2285 0.0000
vt 0.2947 0.1909 0.0000
vt 0.2943 0.1559 0.0000
vt 0.2934 0.1312 0.0000
vt 0.2927 0.0992 0.0000
vt 0.2913 0.0648 0.0000
vt 0.2910 0.0298 0.0000
vt 0.8215 0.6609 0.0000
vt 0.8816 0.6531 0.0000
vt 0.8752 0.7301 0.0000
vt 0.7699 0.7474 0.0000
vt 0.8167 0.8051 0.0000
vt 0.6763 0.8004 0.0000
vt 0.7386 0.8529 0.0000
vt 0.5779 0.7949 0.0000
vt 0.6689 0.8637 0.0000
vt 0.5784 0.8612 0.0000
vt 0.4416 0.7992 0.0000
vt 0.4395 0.8649 0.0000
vt 0.3644 0.7934 0.0000
vt 0.3576 0.8552 0.0000
vt 0.2592 0.7890 0.0000
vt 0.2535 0.8548 0.0000
vt 0.8165 0.4035 0.0000
vt 0.8155 0.3122 0.0000
vt 0.8812 0.3103 0.0000
vt 0.8823 0.4029 0.0000
vt 0.8130 0.4817 0.0000
vt 0.8788 0.4825 0.0000
vt 0.8138 0.5560 0.0000
vt 0.8798 0.5589 0.0000
vt 0.9095 0.7716 0.0000
vt 0.8571 0.8456 0.0000
vt 0.7789 0.8892 0.0000
vt 0.9241 0.6921 0.0000
vt 0.9596 0.7965 0.0000
vt 0.8961 0.8879 0.0000
vt 0.8026 0.9383 0.0000
vt 0.9826 0.7006 0.0000
vt 0.1208 0.9741 0.0000
vt 0.0535 0.9606 0.0000
vt 0.0311 0.9032 0.0000
vt 0.1204 0.9013 0.0000
vt 0.1840 0.9556 0.0000
vt 0.2009 0.9024 0.0000
vt 0.7081 0.9025 0.0000
vt 0.7140 0.9545 0.0000
vt 0.6696 0.9045 0.0000
vt 0.9277 0.6511 0.0000
vt 0.9217 0.5599 0.0000
vt 0.5784 0.9026 0.0000
vt 0.4378 0.9062 0.0000
vt 0.3545 0.9037 0.0000
vt 0.2497 0.8968 0.0000
vt 0.9230 0.3061 0.0000
vt 0.9234 0.4022 0.0000
vt 0.9199 0.4827 0.0000
vt 0.6737 0.9641 0.0000
vt 0.9879 0.6543 0.0000
vt 0.9812 0.5601 0.0000
vt 0.5786 0.9617 0.0000
vt 0.4347 0.9650 0.0000
vt 0.3507 0.9624 0.0000
vt 0.2456 0.9556 0.0000
vt 0.9817 0.3042 0.0000
vt 0.9823 0.4006 0.0000
vt 0.9787 0.4822 0.0000
vt 0.0224 0.6981 0.0000
vt 0.0849 0.6882 0.0000
vt 0.0929 0.7372 0.0000
vt 0.0169 0.7545 0.0000
vt 0.1535 0.6774 0.0000
vt 0.1990 0.7133 0.0000
vt 0.2030 0.8753 0.0000
vt 0.1160 0.8757 0.0000
vt 0.0298 0.8728 0.0000
vt 0.1050 0.8103 0.0000
vt 0.2137 0.8115 0.0000
vt 0.0220 0.8085 0.0000
vt 0.0814 0.6665 0.0000
vt 0.7393 0.4787 0.0000
vt 0.7640 0.5789 0.0000
vt 0.7176 0.5949 0.0000
vt 0.6919 0.4970 0.0000
vt 0.7752 0.6932 0.0000
vt 0.7231 0.7183 0.0000
vt 0.0121 0.5722 0.0000
vt 0.0746 0.4847 0.0000
vt 0.1154 0.5198 0.0000
vt 0.0535 0.6174 0.0000
vt 0.1472 0.4006 0.0000
vt 0.1797 0.4435 0.0000
vt 0.2724 0.3062 0.0000
vt 0.2986 0.3494 0.0000
vt 0.3805 0.2617 0.0000
vt 0.3851 0.3119 0.0000
vt 0.5146 0.2694 0.0000
vt 0.5054 0.3174 0.0000
vt 0.6160 0.3238 0.0000
vt 0.5887 0.3629 0.0000
vt 0.6928 0.3989 0.0000
vt 0.6496 0.4236 0.0000
vt 0.6694 0.6107 0.0000
vt 0.6428 0.5214 0.0000
vt 0.6656 0.7329 0.0000
vt 0.1585 0.5461 0.0000
vt 0.1079 0.6434 0.0000
vt 0.2174 0.4802 0.0000
vt 0.3170 0.3959 0.0000
vt 0.3855 0.3630 0.0000
vt 0.4856 0.3623 0.0000
vt 0.5574 0.3995 0.0000
vt 0.6080 0.4561 0.0000
vt 0.6019 0.6230 0.0000
vt 0.5770 0.5526 0.0000
vt 0.5871 0.7248 0.0000
vt 0.2154 0.5729 0.0000
vt 0.1886 0.6578 0.0000
vt 0.2644 0.5191 0.0000
vt 0.3380 0.4512 0.0000
vt 0.3899 0.4266 0.0000
vt 0.4635 0.4225 0.0000
vt 0.5183 0.4502 0.0000
vt 0.5534 0.4989 0.0000
vt 0.5160 0.6189 0.0000
vt 0.5015 0.5779 0.0000
vt 0.4983 0.6719 0.0000
vt 0.2980 0.5925 0.0000
vt 0.2963 0.6409 0.0000
vt 0.3258 0.5581 0.0000
vt 0.3667 0.5162 0.0000
vt 0.3991 0.5024 0.0000
vt 0.4419 0.4996 0.0000
vt 0.4734 0.5163 0.0000
vt 0.4907 0.5463 0.0000
vt 0.4111 0.5888 0.0000
# 206 texture coords

o police_leftleg
g police_leftleg
usemtl wire_115115115
s 1
f 1/1/1 2/2/2 3/3/3 
f 3/3/3 4/4/4 1/1/1 
f 2/2/2 5/5/5 6/6/6 
f 6/6/6 3/3/3 2/2/2 
f 5/7/5 7/8/7 8/9/8 
f 8/9/8 6/10/6 5/7/5 
f 7/8/7 9/11/9 10/12/10 
f 10/12/10 8/9/8 7/8/7 
f 4/4/4 3/3/3 11/13/11 
f 11/13/11 12/14/12 4/4/4 
f 3/3/3 6/6/6 13/15/13 
f 13/15/13 11/13/11 3/3/3 
f 6/10/6 8/9/8 14/16/14 
f 14/16/14 13/17/13 6/10/6 
f 8/9/8 10/12/10 15/18/15 
f 15/18/15 14/16/14 8/9/8 
f 12/14/12 11/13/11 16/19/16 
f 16/19/16 17/20/17 12/14/12 
f 11/13/11 13/15/13 18/21/18 
f 18/21/18 16/19/16 11/13/11 
f 13/17/13 14/16/14 19/22/19 
f 19/22/19 18/23/18 13/17/13 
f 14/16/14 15/18/15 20/24/20 
f 20/24/20 19/22/19 14/16/14 
f 17/20/17 16/19/16 21/25/21 
f 21/25/21 22/26/22 17/20/17 
f 16/19/16 18/21/18 23/27/23 
f 23/27/23 21/25/21 16/19/16 
f 18/23/18 19/22/19 24/28/24 
f 24/28/24 23/29/23 18/23/18 
f 19/22/19 20/24/20 25/30/25 
f 25/30/25 24/28/24 19/22/19 
f 22/26/22 21/25/21 26/31/26 
f 26/31/26 27/32/27 22/26/22 
f 21/25/21 23/27/23 28/33/28 
f 28/33/28 26/31/26 21/25/21 
f 23/29/23 24/28/24 29/34/29 
f 29/34/29 28/35/28 23/29/23 
f 24/28/24 25/30/25 30/36/30 
f 30/36/30 29/34/29 24/28/24 
f 27/32/27 26/31/26 31/37/31 
f 31/37/31 32/38/32 27/32/27 
f 26/31/26 28/33/28 33/39/33 
f 33/39/33 31/37/31 26/31/26 
f 28/35/28 29/34/29 34/40/34 
f 34/40/34 33/41/33 28/35/28 
f 29/34/29 30/36/30 35/42/35 
f 35/42/35 34/40/34 29/34/29 
f 10/12/10 9/11/9 36/43/36 
f 36/43/36 37/44/37 10/12/10 
f 15/18/15 10/12/10 37/44/37 
f 37/44/37 38/45/38 15/18/15 
f 20/24/20 15/18/15 38/45/38 
f 38/45/38 39/46/39 20/24/20 
f 25/30/25 20/24/20 39/46/39 
f 39/46/39 40/47/40 25/30/25 
f 30/36/30 25/30/25 40/47/40 
f 40/47/40 41/48/41 30/36/30 
f 35/42/35 30/36/30 41/48/41 
f 41/48/41 42/49/42 35/42/35 
f 37/44/37 36/43/36 43/50/43 
f 43/50/43 44/51/44 37/44/37 
f 38/45/38 37/44/37 44/51/44 
f 44/51/44 45/52/45 38/45/38 
f 39/46/39 38/45/38 45/52/45 
f 45/52/45 46/53/46 39/46/39 
f 40/47/40 39/46/39 46/53/46 
f 46/53/46 47/54/47 40/47/40 
f 41/48/41 40/47/40 47/54/47 
f 47/54/47 48/55/48 41/48/41 
f 42/49/42 41/48/41 48/55/48 
f 48/55/48 49/56/49 42/49/42 
f 44/51/44 43/50/43 50/57/50 
f 50/57/50 51/58/51 44/51/44 
f 45/52/45 44/51/44 51/58/51 
f 51/58/51 52/59/52 45/52/45 
f 46/53/46 45/52/45 52/59/52 
f 52/59/52 53/60/53 46/53/46 
f 47/54/47 46/53/46 53/60/53 
f 53/60/53 54/61/54 47/54/47 
f 48/55/48 47/54/47 54/61/54 
f 54/61/54 55/62/55 48/55/48 
f 49/56/49 48/55/48 55/62/55 
f 55/62/55 56/63/56 49/56/49 
f 51/58/51 50/57/50 57/64/57 
f 57/64/57 58/65/58 51/58/51 
f 52/59/52 51/58/51 58/65/58 
f 58/65/58 59/66/59 52/59/52 
f 53/60/53 52/59/52 59/66/59 
f 59/66/59 60/67/60 53/60/53 
f 54/61/54 53/60/53 60/67/60 
f 60/67/60 61/68/61 54/61/54 
f 55/62/55 54/61/54 61/68/61 
f 61/68/61 62/69/62 55/62/55 
f 62/69/62 63/70/63 56/63/56 
f 56/63/56 55/62/55 62/69/62 
f 58/65/58 57/64/57 64/71/64 
f 64/71/64 65/72/65 58/65/58 
f 59/66/59 58/65/58 65/72/65 
f 65/72/65 66/73/66 59/66/59 
f 60/67/60 59/66/59 66/73/66 
f 66/73/66 67/74/67 60/67/60 
f 61/68/61 60/67/60 67/74/67 
f 67/74/67 68/75/68 61/68/61 
f 62/69/62 61/68/61 68/75/68 
f 68/75/68 69/76/69 62/69/62 
f 69/76/69 70/77/70 63/70/63 
f 63/70/63 62/69/62 69/76/69 
f 65/72/65 64/71/64 1/1/1 
f 1/1/1 4/4/4 65/72/65 
f 66/73/66 65/72/65 4/4/4 
f 4/4/4 12/14/12 66/73/66 
f 67/74/67 66/73/66 12/14/12 
f 12/14/12 17/20/17 67/74/67 
f 68/75/68 67/74/67 17/20/17 
f 17/20/17 22/26/22 68/75/68 
f 69/76/69 68/75/68 22/26/22 
f 22/26/22 27/32/27 69/76/69 
f 70/77/70 69/76/69 27/32/27 
f 27/32/27 32/38/32 70/77/70 
f 2/78/2 71/79/71 72/80/72 
f 5/81/5 2/78/2 72/80/72 
f 72/80/72 73/82/73 5/81/5 
f 7/83/7 5/81/5 73/82/73 
f 73/82/73 74/84/74 7/83/7 
f 9/85/9 7/83/7 75/86/75 
f 75/86/75 76/87/76 9/85/9 
f 36/88/36 9/85/9 76/87/76 
f 76/87/76 77/89/77 36/88/36 
f 43/90/43 36/88/36 77/89/77 
f 77/89/77 78/91/78 43/90/43 
f 50/92/50 43/90/43 78/91/78 
f 78/91/78 79/93/79 50/92/50 
f 57/94/57 50/95/50 79/96/79 
f 79/96/79 80/97/80 57/94/57 
f 64/98/64 57/94/57 80/97/80 
f 80/97/80 81/99/81 64/98/64 
f 1/100/1 64/98/64 81/99/81 
f 81/99/81 82/101/82 1/100/1 
f 7/83/7 74/84/74 75/86/75 
f 2/78/2 1/100/1 82/101/82 
f 82/101/82 71/79/71 2/78/2 
f 73/82/73 72/80/72 83/102/83 
f 83/102/83 84/103/84 73/82/73 
f 74/84/74 73/82/73 84/103/84 
f 84/103/84 85/104/85 74/84/74 
f 72/80/72 71/79/71 86/105/86 
f 86/105/86 83/102/83 72/80/72 
f 84/103/84 83/102/83 87/106/87 
f 87/106/87 88/107/88 84/103/84 
f 85/104/85 84/103/84 88/107/88 
f 88/107/88 89/108/89 85/104/85 
f 83/102/83 86/105/86 90/109/90 
f 90/109/90 87/106/87 83/102/83 
f 88/110/88 87/111/87 90/112/90 
f 90/112/90 91/113/91 88/110/88 
f 89/114/89 88/110/88 91/113/91 
f 91/113/91 92/115/92 89/114/89 
f 75/86/75 74/84/74 85/104/85 
f 85/104/85 93/116/93 75/86/75 
f 89/108/89 92/117/92 93/116/93 
f 93/116/93 85/104/85 89/108/89 
f 75/86/75 93/116/93 94/118/94 
f 86/105/86 71/79/71 95/119/95 
f 71/79/71 82/101/82 96/120/96 
f 96/120/96 95/119/95 71/79/71 
f 77/89/77 76/87/76 97/121/97 
f 97/121/97 98/122/98 77/89/77 
f 78/91/78 77/89/77 98/122/98 
f 98/122/98 99/123/99 78/91/78 
f 79/93/79 78/91/78 99/123/99 
f 99/123/99 100/124/100 79/93/79 
f 80/97/80 79/96/79 100/125/100 
f 100/125/100 101/126/101 80/97/80 
f 81/99/81 80/97/80 101/126/101 
f 101/126/101 102/127/102 81/99/81 
f 82/101/82 81/99/81 102/127/102 
f 102/127/102 96/120/96 82/101/82 
f 76/87/76 75/86/75 94/118/94 
f 94/118/94 97/121/97 76/87/76 
f 94/118/94 93/116/93 92/117/92 
f 92/117/92 103/128/103 94/118/94 
f 86/105/86 95/119/95 104/129/104 
f 104/129/104 90/109/90 86/105/86 
f 95/119/95 96/120/96 105/130/105 
f 105/130/105 104/129/104 95/119/95 
f 98/122/98 97/121/97 106/131/106 
f 106/131/106 107/132/107 98/122/98 
f 99/123/99 98/122/98 107/132/107 
f 107/132/107 108/133/108 99/123/99 
f 100/124/100 99/123/99 108/133/108 
f 108/133/108 109/134/109 100/124/100 
f 101/126/101 100/125/100 109/135/109 
f 109/135/109 110/136/110 101/126/101 
f 102/127/102 101/126/101 110/136/110 
f 110/136/110 111/137/111 102/127/102 
f 96/120/96 102/127/102 111/137/111 
f 111/137/111 105/130/105 96/120/96 
f 97/121/97 94/118/94 103/128/103 
f 103/128/103 106/131/106 97/121/97 
f 110/138/110 112/139/112 113/140/113 
f 113/140/113 111/141/111 110/138/110 
f 108/142/108 107/143/107 113/140/113 
f 113/140/113 112/139/112 108/142/108 
f 103/144/103 92/115/92 91/113/91 
f 91/113/91 114/145/114 103/144/103 
f 114/145/114 91/113/91 90/112/90 
f 90/112/90 104/146/104 114/145/114 
f 103/144/103 114/145/114 115/147/115 
f 115/147/115 106/148/106 103/144/103 
f 105/149/105 115/147/115 114/145/114 
f 114/145/114 104/146/104 105/149/105 
f 107/143/107 106/148/106 115/147/115 
f 115/147/115 113/140/113 107/143/107 
f 113/140/113 115/147/115 105/149/105 
f 105/149/105 111/141/111 113/140/113 
f 110/138/110 109/150/109 112/139/112 
f 112/139/112 109/150/109 108/142/108 
s off
f 32/151/116 31/152/116 116/153/116 
f 116/153/116 117/154/116 32/151/116 
f 31/152/117 33/155/117 118/156/117 
f 118/156/117 116/153/117 31/152/117 
f 33/157/118 34/158/118 119/159/118 
f 119/159/118 118/160/118 33/157/118 
f 34/158/119 35/161/119 120/162/119 
f 120/162/119 119/159/119 34/158/119 
f 35/161/120 42/163/120 121/164/120 
f 121/164/120 120/162/120 35/161/120 
f 42/163/121 49/165/121 122/166/121 
f 122/166/121 121/164/121 42/163/121 
f 49/165/122 56/167/122 123/168/122 
f 123/168/122 122/166/122 49/165/122 
f 56/167/123 63/169/123 124/170/123 
f 124/170/123 123/168/123 56/167/123 
f 63/169/124 70/171/124 125/172/124 
f 125/172/124 124/170/124 63/169/124 
f 70/171/125 32/151/125 117/154/125 
f 117/154/125 125/172/125 70/171/125 
f 117/154/126 116/153/126 126/173/126 
f 126/173/127 127/174/127 117/154/127 
f 116/153/128 118/156/128 128/175/128 
f 128/175/128 126/173/128 116/153/128 
f 118/160/129 119/159/129 129/176/129 
f 129/176/130 128/177/130 118/160/130 
f 119/159/131 120/162/131 130/178/131 
f 130/178/132 129/176/132 119/159/132 
f 120/162/133 121/164/133 131/179/133 
f 131/179/133 130/178/133 120/162/133 
f 121/164/134 122/166/134 132/180/134 
f 132/180/135 131/179/135 121/164/135 
f 122/166/136 123/168/136 133/181/136 
f 133/181/137 132/180/137 122/166/137 
f 123/168/138 124/170/138 134/182/138 
f 134/182/139 133/181/139 123/168/139 
f 124/170/140 125/172/140 135/183/140 
f 135/183/140 134/182/140 124/170/140 
f 125/172/141 117/154/141 127/174/141 
f 127/174/142 135/183/142 125/172/142 
f 127/174/143 126/173/143 136/184/143 
f 136/184/143 137/185/143 127/174/143 
f 126/173/144 128/175/144 138/186/144 
f 138/186/144 136/184/144 126/173/144 
f 128/177/145 129/176/145 139/187/145 
f 139/187/145 138/188/145 128/177/145 
f 129/176/146 130/178/146 140/189/146 
f 140/189/146 139/187/146 129/176/146 
f 130/178/147 131/179/147 141/190/147 
f 141/190/147 140/189/147 130/178/147 
f 131/179/148 132/180/148 142/191/148 
f 142/191/148 141/190/148 131/179/148 
f 132/180/149 133/181/149 143/192/149 
f 143/192/149 142/191/149 132/180/149 
f 133/181/150 134/182/150 144/193/150 
f 144/193/150 143/192/150 133/181/150 
f 134/182/151 135/183/151 145/194/151 
f 145/194/151 144/193/151 134/182/151 
f 135/183/152 127/174/152 137/185/152 
f 137/185/152 145/194/152 135/183/152 
f 137/185/153 136/184/153 146/195/153 
f 146/195/153 147/196/153 137/185/153 
f 136/184/154 138/186/154 148/197/154 
f 148/197/154 146/195/154 136/184/154 
f 138/188/155 139/187/155 149/198/155 
f 149/198/155 148/199/155 138/188/155 
f 139/187/156 140/189/156 150/200/156 
f 150/200/156 149/198/156 139/187/156 
f 140/189/157 141/190/157 151/201/157 
f 151/201/157 150/200/157 140/189/157 
f 141/190/158 142/191/158 152/202/158 
f 152/202/158 151/201/158 141/190/158 
f 142/191/159 143/192/159 153/203/159 
f 153/203/159 152/202/159 142/191/159 
f 143/192/160 144/193/160 154/204/160 
f 154/204/160 153/203/160 143/192/160 
f 144/193/161 145/194/161 155/205/161 
f 155/205/161 154/204/161 144/193/161 
f 145/194/162 137/185/162 147/196/162 
f 147/196/162 155/205/162 145/194/162 
f 147/196/163 146/195/163 156/206/163 
f 146/195/164 148/197/164 156/206/164 
f 148/199/165 149/198/165 156/206/165 
f 149/198/166 150/200/166 156/206/166 
f 150/200/167 151/201/167 156/206/167 
f 151/201/168 152/202/168 156/206/168 
f 152/202/169 153/203/169 156/206/169 
f 153/203/170 154/204/170 156/206/170 
f 154/204/171 155/205/171 156/206/171 
f 155/205/172 147/196/172 156/206/172 
# 308 faces

